<?xml version="1.0" encoding="UTF-8"?>
<svg version="1.1" xmlns="http://www.w3.org/2000/svg" width="450" height="523">
<path d="M0 0 C148.5 0 297 0 450 0 C450 172.59 450 345.18 450 523 C301.5 523 153 523 0 523 C0 350.41 0 177.82 0 0 Z " fill="#EDE7D9" transform="translate(0,0)"/>
<path d="M0 0 C1.35611813 0.00502686 2.71223808 0.00958766 4.06835938 0.01367188 C7.35809235 0.02537911 10.64780215 0.04331187 13.9375 0.0625 C13.9375 8.6425 13.9375 17.2225 13.9375 26.0625 C11.80152344 26.08828125 9.66554688 26.1140625 7.46484375 26.140625 C5.339642 26.17930552 3.21466206 26.22437997 1.08959961 26.27001953 C-0.35983245 26.29782255 -1.80940467 26.31923365 -3.2590332 26.33349609 C-21.5642737 26.5241095 -41.5045726 30.71880622 -55.0625 44.0625 C-67.0285774 58.10406406 -70.21956017 73.58480702 -70.6774292 91.4995575 C-70.714991 92.76434014 -70.75255281 94.02912279 -70.79125285 95.33223218 C-71.15629481 108.57741156 -71.21810207 121.82021281 -71.22363281 135.06958008 C-71.22827926 137.72766764 -71.23328803 140.38575254 -71.23867798 143.0438385 C-71.25203214 150.16280155 -71.2582453 157.28175882 -71.26268864 164.40073228 C-71.26548262 168.86196586 -71.26972429 173.32319738 -71.27419281 177.78442955 C-71.28634031 190.19245293 -71.29665806 202.60047472 -71.3000679 215.00850391 C-71.30028747 215.79615068 -71.30050703 216.58379744 -71.30073325 217.39531229 C-71.30095153 218.18451589 -71.30116981 218.97371949 -71.3013947 219.78683835 C-71.30183813 221.38531737 -71.30228469 222.98379638 -71.30273438 224.58227539 C-71.3029558 225.3751261 -71.30317723 226.1679768 -71.30340537 226.98485329 C-71.30736592 239.87294679 -71.32487835 252.76098421 -71.3480939 265.649056 C-71.37186111 278.95255954 -71.38427167 292.2560349 -71.38543582 305.55956 C-71.38634794 313.001045 -71.39198532 320.44245618 -71.41025543 327.88392067 C-71.42572726 334.20615557 -71.43073426 340.52829363 -71.42251733 346.85054389 C-71.41863985 350.06690904 -71.42106667 353.28304096 -71.43357468 356.49938965 C-71.52082501 380.34324052 -69.44530901 399.20475341 -55.0625 419.0625 C-54.64226562 419.66964844 -54.22203125 420.27679688 -53.7890625 420.90234375 C-45.0162703 432.63050921 -27.36439921 439.71610483 -13.46711445 442.6013298 C-9.2212835 443.17644652 -5.07894618 443.20726322 -0.79960632 443.20294189 C0.12457555 443.20591302 1.04875741 443.20888414 2.00094479 443.2119453 C5.0934939 443.22060706 8.18600418 443.22213844 11.27856445 443.22363281 C13.49814435 443.22826296 15.71772345 443.23328789 17.93730164 443.23867798 C23.96682082 443.25178953 29.99632886 443.25824513 36.02586007 443.26268864 C39.79801027 443.26562284 43.57015746 443.26972843 47.34230614 443.27419281 C57.80553813 443.28630156 68.26876834 443.29668231 78.73200703 443.3000679 C79.40113511 443.30028747 80.07026319 443.30050703 80.75966788 443.30073325 C81.43032462 443.30095153 82.10098135 443.30116981 82.79196101 443.3013947 C84.15077674 443.30183815 85.50959247 443.30228472 86.8684082 443.30273438 C87.54241608 443.3029558 88.21642397 443.30317723 88.91085633 443.30340537 C99.80805144 443.30734503 110.70517934 443.32477373 121.60234854 443.3480939 C132.81573252 443.37189494 144.02909213 443.38401664 155.24250382 443.38543582 C161.52797872 443.38648021 167.81335889 443.3923092 174.0988102 443.41025543 C180.02089028 443.4268346 185.94280545 443.42884413 191.86490059 443.42011642 C194.02665908 443.41935115 196.1884268 443.42362058 198.35016251 443.43357468 C213.46950135 443.49905401 229.5053286 443.52257126 243.4375 436.8125 C244.09564697 436.50803955 244.75379395 436.2035791 245.43188477 435.88989258 C260.86610255 428.48992515 271.51940134 414.94220167 278.06640625 399.37890625 C280.10374894 393.54246076 281.05891632 387.7472666 281.07451439 381.55875587 C281.07958893 380.48379093 281.08466347 379.40882598 281.08989179 378.30128634 C281.09038955 377.13126523 281.09088731 375.96124412 281.09140015 374.75576782 C281.0957824 373.5041962 281.10016465 372.25262458 281.1046797 370.96312654 C281.11660228 367.49588861 281.1222836 364.02866457 281.12686086 360.56141019 C281.13283347 356.81883417 281.14443921 353.0762746 281.15515137 349.33370972 C281.1796387 340.29787026 281.19429778 331.26202537 281.20721143 322.22616297 C281.21092625 319.67179632 281.21489925 317.11743021 281.2189641 314.5630641 C281.24420514 298.68340376 281.26624711 282.80374251 281.27869225 266.92406654 C281.2816217 263.24836855 281.28458339 259.57267058 281.28759766 255.89697266 C281.28871673 254.5266936 281.28871673 254.5266936 281.28985842 253.12873213 C281.30250047 238.34445113 281.33571019 223.56029071 281.37739949 208.77606602 C281.41989866 193.57939126 281.44339653 178.3827781 281.44861281 163.1860441 C281.45201804 154.66099156 281.46366783 146.1361274 281.49671555 137.61113358 C281.52482725 130.34774581 281.53566696 123.08458508 281.52452008 115.82114716 C281.51936154 112.12080486 281.52203492 108.42093716 281.54698563 104.72066498 C281.69458767 81.57324034 279.92725531 61.87960085 263.21484375 44.27734375 C256.69122693 37.93276273 249.32785561 33.58644935 240.9375 30.0625 C240.29796387 29.79252197 239.65842773 29.52254395 238.99951172 29.24438477 C230.24739331 26.0746627 220.99872385 26.49665445 211.8125 26.375 C210.07549596 26.34177064 208.33851564 26.30727594 206.6015625 26.27148438 C202.38019151 26.18488182 198.15959623 26.12427638 193.9375 26.0625 C194.2675 17.4825 194.5975 8.9025 194.9375 0.0625 C223.96753829 -0.43264279 251.83970599 0.26789596 275.2578125 20.01953125 C276.89588554 21.64696745 278.42673801 23.31761408 279.9375 25.0625 C281.175 26.2690625 281.175 26.2690625 282.4375 27.5 C283.675 28.7684375 283.675 28.7684375 284.9375 30.0625 C285.45957031 30.5884375 285.98164063 31.114375 286.51953125 31.65625 C301.13627618 47.22984731 308.26061721 68.79572871 308.20492554 89.79246521 C308.20945665 91.05335608 308.21398776 92.31424695 308.21865618 93.61334664 C308.23082746 97.092776 308.23063268 100.57210879 308.22826743 104.05155456 C308.22785775 107.81252688 308.23891305 111.57346886 308.24838257 115.33442688 C308.26496311 122.69664383 308.27049085 130.05882875 308.27160732 137.42106282 C308.27255954 143.41135446 308.27667852 149.40163559 308.28300858 155.3919239 C308.30061578 172.40220778 308.30984869 189.41246647 308.30834763 206.42275953 C308.30826772 207.3389105 308.3081878 208.25506148 308.30810547 209.19897461 C308.30802371 210.11625409 308.30794195 211.03353356 308.30785771 211.97860939 C308.30704577 226.82599853 308.32616158 241.67328598 308.3543822 256.52064573 C308.38317785 271.79201237 308.39691871 287.06332955 308.39519465 302.33472401 C308.39453288 310.89776311 308.39993101 319.46069572 308.42155075 328.02371025 C308.43985108 335.31843045 308.44403811 342.61299593 308.4305319 349.90772926 C308.4240455 353.62244385 308.42372578 357.33686242 308.4412384 361.051548 C308.52894906 380.90587511 307.8001891 398.91508899 298.9375 417.0625 C298.44636719 418.11824219 297.95523437 419.17398437 297.44921875 420.26171875 C293.14758672 428.93684777 287.6573239 435.25438644 280.9375 442.0625 C279.96876953 443.15691406 279.96876953 443.15691406 278.98046875 444.2734375 C270.72574153 453.37342001 259.6481767 458.77899118 248.25 462.875 C247.52264648 463.14062744 246.79529297 463.40625488 246.04589844 463.67993164 C229.29145935 469.32205813 212.58809171 470.6534278 195.03881836 470.58007812 C192.82041467 470.58551411 190.60201461 470.59264496 188.38362122 470.60131836 C182.42081807 470.61937802 176.45829526 470.61255694 170.49548793 470.59980202 C164.21838493 470.58958479 157.9413039 470.59909156 151.66419983 470.60534668 C140.45723632 470.61306008 129.25037451 470.6007301 118.04343534 470.58030933 C107.92366997 470.56243919 97.80408825 470.565553 87.68432617 470.58398438 C75.87329057 470.60548667 64.06234417 470.61330795 52.25128847 470.60153532 C46.02072631 470.59533784 39.79029005 470.59436075 33.55973625 470.60768127 C27.69976687 470.61933743 21.84014026 470.61103763 15.98020744 470.58810425 C13.84508836 470.58286913 11.70993981 470.58424024 9.57483292 470.59315491 C-19.46774037 470.70312569 -46.22227058 463.80757483 -67.765625 443.35546875 C-68.52359375 442.59878906 -69.2815625 441.84210938 -70.0625 441.0625 C-70.82046875 440.31613281 -71.5784375 439.56976563 -72.359375 438.80078125 C-89.5053927 420.91571106 -97.57856961 396.29049476 -97.45018005 371.79373169 C-97.45556559 370.53532467 -97.46095113 369.27691765 -97.46649987 367.98037708 C-97.48080184 364.53113658 -97.47675832 361.08213811 -97.46933305 357.63288522 C-97.46456539 353.89589029 -97.47714273 350.15894507 -97.48735046 346.42196655 C-97.50447381 339.11790379 -97.50539199 331.81392729 -97.50013756 324.50984968 C-97.49608257 318.56828323 -97.49755513 312.62674211 -97.50288582 306.68517685 C-97.50363424 305.83688201 -97.50438266 304.98858718 -97.50515376 304.11458644 C-97.50668537 302.39082361 -97.50822372 300.66706078 -97.50976873 298.94329797 C-97.52347035 282.80849061 -97.51807253 266.67373186 -97.50658352 250.53892563 C-97.49665329 235.80689607 -97.50959235 221.07499214 -97.53351771 206.34298195 C-97.55795217 191.18220206 -97.56750594 176.02148058 -97.56086498 160.86068141 C-97.55738245 152.36262092 -97.55954076 143.86465699 -97.57711601 135.36661148 C-97.59189249 128.13269898 -97.59240273 120.89895104 -97.5750451 113.66504158 C-97.56657732 109.98092432 -97.56428082 106.29710034 -97.57969666 102.61299896 C-97.68987994 74.28001575 -97.68987994 74.28001575 -93.0625 61.0625 C-92.7822721 60.23347734 -92.5020442 59.40445469 -92.21332455 58.55031013 C-88.88534938 49.45260021 -84.25176975 41.51040856 -78.0625 34.0625 C-77.3509375 33.20011719 -76.639375 32.33773437 -75.90625 31.44921875 C-61.18811214 14.37306937 -40.32998839 2.71841212 -17.86938477 0.26757812 C-11.92324207 -0.16686215 -5.95831066 -0.03817547 0 0 Z " fill="#1B2E3A" transform="translate(123.0625,39.9375)"/>
<path d="M0 0 C0.63164062 0.37125 1.26328125 0.7425 1.9140625 1.125 C2.9246875 1.7025 3.9353125 2.28 4.9765625 2.875 C19.18637937 13.75911505 29.08829255 31.33870592 31.59765625 49.0625 C32.65058783 59.25383777 31.46668379 68.22126761 28.9140625 78.125 C28.62402344 79.2903125 28.33398438 80.455625 28.03515625 81.65625 C26.13632292 88.58421093 23.99271381 93.09952829 18.9140625 98.125 C18.1509375 99.135625 17.3878125 100.14625 16.6015625 101.1875 C13.20179632 104.90352349 9.46788597 107.92606469 4.9140625 110.125 C3.24796119 110.1684073 1.58001886 110.17365366 -0.0859375 110.125 C-0.00066141 124.26346515 0.09502907 138.4018303 0.20158958 152.5401516 C0.25082804 159.11024389 0.29714142 165.68032537 0.3359375 172.25048828 C0.566361 224.00806308 0.566361 224.00806308 3.7114563 275.65527344 C4.0353434 279.60338836 4.13612723 283.54017605 4.1640625 287.5 C4.1846875 288.25410156 4.2053125 289.00820313 4.2265625 289.78515625 C4.26046894 294.64225439 3.61799058 297.92924953 0.9140625 302.125 C-0.76953125 303.76953125 -0.76953125 303.76953125 -2.5234375 304.9375 C-3.09964844 305.33582031 -3.67585938 305.73414063 -4.26953125 306.14453125 C-8.39322433 308.3704387 -12.46102534 308.44395946 -17.0859375 308.125 C-22.45718274 306.26150675 -25.99301876 302.80971405 -29.0859375 298.125 C-30.67072468 293.37063845 -30.46739382 288.29504526 -29.60888672 283.41113281 C-20.68007974 227.30387699 -25.95640949 166.75311679 -26.0859375 110.125 C-26.69937012 109.92801514 -27.31280273 109.73103027 -27.94482422 109.52807617 C-28.75193848 109.26486572 -29.55905273 109.00165527 -30.390625 108.73046875 C-31.18968262 108.47160889 -31.98874023 108.21274902 -32.81201172 107.94604492 C-42.77544861 104.34855316 -48.19634323 95.56523128 -52.7265625 86.54296875 C-59.63079912 69.18317839 -60.24874224 47.42482766 -52.984375 30.04296875 C-46.55977497 16.26577092 -37.8858814 4.19676385 -23.4921875 -1.83984375 C-15.34182963 -4.31673003 -7.5714391 -3.96468084 0 0 Z " fill="#182D3C" transform="translate(352.0859375,122.875)"/>
<path d="M0 0 C0.89162842 0.00563965 1.78325684 0.0112793 2.7019043 0.01708984 C12.91609821 0.20580906 19.96237302 1.85595451 27.25 9.3125 C30.70154106 7.65943377 33.79215795 5.67161792 36.95703125 3.53125 C46.39692927 -1.48620857 59.64119737 -1.22028594 69.87109375 1.15234375 C81.43938008 5.62019946 89.64192412 13.33066897 95.25 24.3125 C96.48936611 27.27142941 97.45756285 30.20614637 98.25 33.3125 C98.5903125 34.55 98.5903125 34.55 98.9375 35.8125 C100.59919176 49.10603405 96.76264648 62.32953934 88.890625 73.1875 C87.70797523 74.58915898 86.48040974 75.95257344 85.25 77.3125 C84.59 78.34375 83.93 79.375 83.25 80.4375 C81.16154953 83.43964756 79.10489942 85.05513766 76.25 87.3125 C75.12425073 88.54309847 74.02210244 89.79548715 72.9375 91.0625 C62.39365487 103.29968214 46.17617964 119.45417711 29.5 122.625 C14.67890394 122.89744662 -0.79035915 104.88321898 -10.75 95.3125 C-12.09771484 94.02666016 -12.09771484 94.02666016 -13.47265625 92.71484375 C-28.02686092 78.52055759 -41.30917116 62.51307838 -42.125 41.4375 C-41.88772316 29.76644562 -36.31994763 19.96360779 -28.4375 11.625 C-19.86057976 3.46554048 -11.78690727 -0.07694521 0 0 Z " fill="#172C39" transform="translate(198.75,8.6875)"/>
<path d="M0 0 C5.22478052 2.42648983 8.45089854 5.29036876 10.9140625 10.609375 C12.82869124 16.15855321 12.89014868 22.71858675 10.5234375 28.15625 C6.86782678 34.45991796 1.70534552 39.8973258 -3.1640625 45.28125 C-3.9375 46.13976562 -4.7109375 46.99828125 -5.5078125 47.8828125 C-10.5983421 53.23484191 -16.18926722 57.89795525 -21.9765625 62.46875 C-22.70633301 63.05849609 -23.43610352 63.64824219 -24.18798828 64.25585938 C-29.33219829 68.21203286 -29.33219829 68.21203286 -32.74609375 68.49609375 C-36.30894251 66.70603565 -39.08592827 64.31461239 -42.0390625 61.65625 C-42.68891113 61.07939453 -43.33875977 60.50253906 -44.00830078 59.90820312 C-74.46498721 32.57847152 -74.46498721 32.57847152 -75.40234375 21.453125 C-75.65053431 10.0102338 -75.65053431 10.0102338 -71.1640625 5.28125 C-66.94604948 1.56538138 -64.50776699 0.11394178 -58.9140625 -0.03125 C-57.98078125 -0.06863281 -57.0475 -0.10601562 -56.0859375 -0.14453125 C-49.13324666 0.86862824 -44.78063407 6.50628634 -40.39648438 11.56640625 C-37.74531535 14.40503167 -36.38606694 15.25347002 -32.48046875 15.7421875 C-27.01584313 14.98267534 -25.02976482 11.39755036 -21.7890625 7.21875 C-16.15324475 0.91200156 -8.38558463 -2.78510392 0 0 Z " fill="#F5F6EA" transform="translate(259.1640625,34.71875)"/>
<path d="M0 0 C1.06794044 0.00212997 1.06794044 0.00212997 2.15745544 0.00430298 C4.52331567 0.01352772 6.8882652 0.04522704 9.25390625 0.078125 C10.92007812 0.09149518 12.58625706 0.10400966 14.25244141 0.11572266 C18.79519174 0.15370177 23.33732353 0.21561758 27.87969971 0.2845459 C30.91308409 0.32955965 33.94650578 0.36881234 36.97998047 0.40722656 C42.19760763 0.47527828 47.41485995 0.55707787 52.6321106 0.64953613 C54.66110205 0.68507744 56.69013694 0.71822449 58.71920776 0.74890137 C61.58261517 0.79433121 64.44549528 0.85240236 67.30859375 0.9140625 C68.15296494 0.92563385 68.99733612 0.9372052 69.86729431 0.9491272 C78.25972389 1.1576144 84.67859208 2.34001361 90.81640625 8.328125 C92.66096386 12.01724023 92.1670359 16.29269645 91.81640625 20.328125 C90.08365482 24.52320741 87.6116653 26.88150353 83.81640625 29.328125 C80.83626986 29.90433729 77.91061462 29.86491479 74.8828125 29.82983398 C73.99278534 29.83523697 73.10275818 29.84063995 72.1857605 29.84620667 C69.249802 29.85869284 66.31482432 29.84220358 63.37890625 29.82421875 C61.33536732 29.82437374 59.29182808 29.82586273 57.24829102 29.82862854 C52.96780383 29.83001249 48.68765172 29.81745501 44.40722656 29.79467773 C38.92262377 29.76629331 33.43857771 29.76903058 27.95393372 29.78176785 C23.73485567 29.78872546 19.51590612 29.78093476 15.29684448 29.76851082 C13.27465304 29.76399713 11.25244781 29.76365879 9.23025513 29.76757622 C6.40321616 29.7704892 3.57694226 29.75397708 0.75 29.73217773 C-0.50165451 29.73893021 -0.50165451 29.73893021 -1.77859497 29.74581909 C-6.41542343 29.68646387 -9.399673 29.29197997 -13.18359375 26.328125 C-16.48403079 22.66097273 -17.94569792 20.06136605 -18.62109375 15.140625 C-18.03228801 10.00960357 -15.8022577 6.93893935 -12.18359375 3.328125 C-8.05159331 0.28810662 -5.08241774 -0.03731159 0 0 Z " fill="#1A303D" transform="translate(186.18359375,392.671875)"/>
<path d="M0 0 C0.82697891 -0.00700928 1.65395782 -0.01401855 2.5059967 -0.02124023 C5.22187537 -0.03875086 7.93669982 -0.0272214 10.65258789 -0.01367188 C12.55156147 -0.01636905 14.45053369 -0.02025334 16.34950256 -0.02526855 C20.32297965 -0.03115443 24.29609619 -0.02263099 28.26953125 -0.00390625 C33.34809848 0.01886714 38.42581931 0.00576463 43.50435543 -0.01819611 C47.42418219 -0.03269202 51.34381032 -0.02803046 55.26364326 -0.01768494 C57.13543359 -0.01502732 59.00724229 -0.01825326 60.87901115 -0.02760315 C63.50185354 -0.03782977 66.12335083 -0.02218274 68.74609375 0 C69.51049774 -0.00809692 70.27490173 -0.01619385 71.06246948 -0.02453613 C76.57699967 0.0613164 80.82123005 1.46321405 85.43774414 4.51757812 C89.90705138 9.33067822 90.84512687 12.53276995 90.78930664 18.97070312 C90.21390195 23.13919041 88.52408951 24.71180961 85.43774414 27.51757812 C81.56831753 30.22768335 77.24451716 29.80579426 72.70947266 29.79223633 C71.38928131 29.79990273 71.38928131 29.79990273 70.04241943 29.807724 C67.13376053 29.82162126 64.22533854 29.82066315 61.31665039 29.81835938 C59.29410209 29.82224617 57.2715546 29.82658081 55.24900818 29.8313446 C51.00972854 29.83880706 46.77053217 29.83851529 42.53125 29.83325195 C37.09934503 29.82745667 31.66778096 29.8443897 26.23593235 29.86759663 C22.05891426 29.88232986 17.88197836 29.88320623 13.70493889 29.8800869 C11.70227317 29.8806003 9.69960288 29.88584148 7.69696236 29.89589882 C4.89621971 29.90823812 2.09614219 29.9014866 -0.70458984 29.88989258 C-1.94457481 29.90135818 -1.94457481 29.90135818 -3.20960999 29.91305542 C-9.52007527 29.85532891 -12.66110379 28.2497389 -17.37475586 23.95507812 C-20.1084784 20.48601883 -20.22227954 17.22680891 -19.97631836 12.91601562 C-19.34337976 9.24974864 -18.08420723 7.23352575 -15.56225586 4.51757812 C-10.19363631 0.84622223 -6.43116622 -0.067942 0 0 Z " fill="#182F3C" transform="translate(187.562255859375,318.482421875)"/>
<path d="M0 0 C0.86686935 -0.0049649 1.73373871 -0.00992981 2.62687683 -0.01504517 C5.50427029 -0.02968879 8.38160855 -0.03647361 11.2590332 -0.04199219 C13.2572276 -0.04774329 15.25542198 -0.05350103 17.25361633 -0.05926514 C21.44935361 -0.06978238 25.6450717 -0.07561983 29.84082031 -0.07910156 C35.20978854 -0.08457772 40.57850206 -0.10858395 45.94739056 -0.13707352 C50.07815787 -0.15572782 54.2088643 -0.16090706 58.33967018 -0.16243744 C60.31836141 -0.16545986 62.29705167 -0.1734745 64.27570152 -0.18662262 C67.04988114 -0.20373598 69.82344482 -0.20178957 72.59765625 -0.1953125 C73.81754242 -0.20913467 73.81754242 -0.20913467 75.06207275 -0.22323608 C80.86721404 -0.18092004 85.85940905 0.71416502 90.36450195 4.70410156 C93.48257091 9.23067753 94.71043774 12.60936588 94.62231445 18.16113281 C92.26729279 23.05957787 89.351518 25.58334127 84.62231445 28.16113281 C81.58120186 28.72912534 78.6025539 28.72872488 75.51513672 28.71044922 C74.61842255 28.72067108 73.72170837 28.73089294 72.79782104 28.74142456 C69.84451325 28.76914107 66.8921428 28.76730943 63.9387207 28.76269531 C61.87897904 28.77047309 59.81924056 28.77914323 57.75950623 28.78866577 C53.44633578 28.80357361 49.1334928 28.80301977 44.8203125 28.79248047 C39.30083507 28.7808892 33.78269952 28.81476233 28.26344395 28.86116982 C24.0108002 28.890674 19.75847863 28.89238415 15.50575066 28.88615036 C13.47122476 28.88717521 11.43668045 28.89762141 9.4022541 28.9177742 C6.55358493 28.94253185 3.70751619 28.92891092 0.85888672 28.90576172 C-0.3936515 28.92869293 -0.3936515 28.92869293 -1.67149353 28.9520874 C-7.19700443 28.85314868 -10.02742183 27.48481861 -14.03077793 23.67328453 C-17.45893153 19.82455111 -17.98050657 15.46524049 -17.9050293 10.45019531 C-16.92749751 6.20698325 -13.73856196 3.71600719 -10.37768555 1.16113281 C-7.13238957 -0.46151517 -3.5663971 0.00484191 0 0 Z " fill="#18303E" transform="translate(185.377685546875,245.8388671875)"/>
<path d="M0 0 C3.69589774 3.15966257 6.75489135 6.84304387 7.3125 11.75 C6.70327995 18.08588852 2.32343338 21.72420776 -2 26 C-3.23446158 27.25514615 -4.46742896 28.51176292 -5.69921875 29.76953125 C-7.02855569 31.11727642 -8.35798452 32.46493096 -9.6875 33.8125 C-10.36361328 34.50537109 -11.03972656 35.19824219 -11.73632812 35.91210938 C-12.70795898 36.8934082 -12.70795898 36.8934082 -13.69921875 37.89453125 C-14.57839966 38.78942261 -14.57839966 38.78942261 -15.4753418 39.70239258 C-17 41 -17 41 -19 41 C-19.26167969 41.58523437 -19.52335937 42.17046875 -19.79296875 42.7734375 C-21.06354408 45.11721724 -22.47118199 46.70610984 -24.3125 48.625 C-27.59581315 52.27988151 -29.55176729 55.91492033 -31.6171875 60.33984375 C-35.09269284 67.02577352 -40.54726677 76.51575559 -48 79 C-50.4535801 79.19741449 -52.91429319 79.31215287 -55.375 79.375 C-56.68210937 79.42398438 -57.98921875 79.47296875 -59.3359375 79.5234375 C-63.92389971 78.86801433 -65.14629606 77.57458734 -68 74 C-69.22250997 72.26724752 -70.39093284 70.49496558 -71.5 68.6875 C-72.09039062 67.73230469 -72.68078125 66.77710938 -73.2890625 65.79296875 C-73.85367188 64.87128906 -74.41828125 63.94960937 -75 63 C-76.35026578 60.88458361 -77.70212069 58.77019548 -79.0546875 56.65625 C-81.28821114 52.74296891 -81.57812815 49.40822713 -81 45 C-78.05192894 40.4740881 -74.09488415 35.98824747 -69 34 C-64.08 33.098 -64.08 33.098 -61 34 C-58.4645602 35.95162143 -56.2816459 38.0292035 -54.078125 40.34765625 C-52.18943138 42.17937165 -52.18943138 42.17937165 -50.06640625 42.09375 C-46.99408347 40.46756781 -44.93812668 38.02253675 -42.6875 35.4375 C-42.19822021 34.88956787 -41.70894043 34.34163574 -41.20483398 33.77709961 C-39.79382615 32.19271609 -38.39461873 30.59881196 -37 29 C-36.38898438 28.30132812 -35.77796875 27.60265625 -35.1484375 26.8828125 C-34.07899496 25.65532427 -33.00999413 24.42745108 -31.94140625 23.19921875 C-10.08091147 -1.56427937 -10.08091147 -1.56427937 0 0 Z " fill="#132C3A" transform="translate(168,127)"/>
<path d="M0 0 C0.80034668 -0.0049649 1.60069336 -0.00992981 2.42529297 -0.01504517 C5.07479714 -0.02965783 7.72424143 -0.03646752 10.3737793 -0.04199219 C12.21599835 -0.04774466 14.05821738 -0.05350238 15.9004364 -0.05926514 C19.76484455 -0.06977277 23.62923192 -0.0756169 27.49365234 -0.07910156 C32.44008146 -0.08458383 37.38623497 -0.10860714 42.33257771 -0.13707352 C46.13904111 -0.15571829 49.94543838 -0.16090649 53.75194359 -0.16243744 C55.57516167 -0.16546066 57.39837869 -0.17347805 59.2215519 -0.18662262 C61.77551725 -0.20372061 64.32881277 -0.20179376 66.8828125 -0.1953125 C68.00755226 -0.20913467 68.00755226 -0.20913467 69.15501404 -0.22323608 C75.50791556 -0.17285744 79.36168618 1.54156546 84.01049805 5.78613281 C86.33761828 9.4821473 86.99634769 11.55091649 86.7565918 15.84472656 C85.57882611 20.23727406 82.61807626 23.35216741 79.13549805 26.16113281 C74.77348088 28.3992342 70.58551544 28.48182959 65.78442383 28.51513672 C64.95613068 28.52827911 64.12783752 28.54142151 63.27444458 28.55496216 C60.54322913 28.59426841 57.81223243 28.61771289 55.08081055 28.63769531 C54.1453326 28.64584637 53.20985466 28.65399742 52.2460289 28.66239548 C47.29724777 28.70404295 42.34857642 28.73268124 37.3996582 28.75146484 C32.29578066 28.77361586 27.19364191 28.84245573 22.09037971 28.92180824 C18.15775358 28.97414688 14.2255425 28.99084828 10.29259872 28.9980278 C8.41148976 29.00775401 6.53039901 29.03096772 4.6496315 29.06810379 C-9.95872764 29.33868966 -9.95872764 29.33868966 -14.57354736 26.48724365 C-18.21214636 22.55010239 -19.88846151 18.5739789 -20.0637207 13.19628906 C-19.61939084 8.65715459 -17.1308643 6.2783636 -13.86450195 3.41113281 C-9.27040639 -0.03443886 -5.52109812 0.00816486 0 0 Z " fill="#182E3B" transform="translate(187.864501953125,167.8388671875)"/>
<path d="M0 0 C4.19304214 2.8421737 6.69233565 6.13209848 9.125 10.5 C9.47046875 11.1194751 9.8159375 11.7389502 10.171875 12.37719727 C16.09392393 23.4174674 18.19775185 36.11741959 15.15625 48.41015625 C12.31152101 56.16588698 8.31198436 60.34400782 1 64 C-4.95293853 64.55674965 -9.97348091 64.54141118 -15 61 C-21.39158572 55.20517166 -24.00560317 48.33331848 -24.43359375 39.765625 C-24.45685413 37.92723002 -24.45757373 36.08843254 -24.4375 34.25 C-24.43065186 33.28642578 -24.42380371 32.32285156 -24.41674805 31.33007812 C-24.21886829 22.50182455 -23.15364188 13.82697203 -17.75 6.5 C-12.1725523 1.429593 -7.82536062 -2.51002133 0 0 Z " fill="#F5F6EF" transform="translate(343,146)"/>
<path d="M0 0 C1.95196289 -0.02320313 1.95196289 -0.02320313 3.94335938 -0.046875 C5.20083984 -0.04171875 6.45832031 -0.0365625 7.75390625 -0.03125 C8.89287354 -0.02673828 10.03184082 -0.02222656 11.20532227 -0.01757812 C16.2061693 0.78322222 19.30776163 3.27611676 22.6875 6.9375 C26.27301949 12.18772497 26.77693436 15.80843149 25.9765625 22.0625 C24.98470492 26.54742124 22.89616857 29.40222389 19.26757812 32.13305664 C15.76767281 33.82353023 12.71243706 33.95001721 8.90625 33.93359375 C8.19271362 33.9388356 7.47917725 33.94407745 6.74401855 33.94947815 C5.24130551 33.95587744 3.73854223 33.9545885 2.23583984 33.94604492 C-0.05592371 33.93752445 -2.34520043 33.96633631 -4.63671875 33.99804688 C-6.10156176 33.99965895 -7.56640915 33.99908124 -9.03125 33.99609375 C-9.71159302 34.00732773 -10.39193604 34.01856171 -11.09289551 34.03013611 C-15.848948 33.96087429 -18.1959898 32.81286993 -21.5625 29.5 C-25.17736959 24.75613103 -26.22177695 19.78231604 -25.94140625 13.89453125 C-25.1219565 8.71594675 -22.98502868 5.62262235 -18.8203125 2.3359375 C-13.05764132 -0.80024072 -6.37181961 -0.07596804 0 0 Z " fill="#213540" transform="translate(113.5625,315.5)"/>
<path d="M0 0 C1.48405406 -0.02650674 2.96792749 -0.06732278 4.45117188 -0.12304688 C18.33800583 -0.63817859 18.33800583 -0.63817859 23.51513672 3.74121094 C26.98097801 7.37218534 28.90256335 10.77414594 28.92919922 15.83496094 C28.7683659 21.60603886 27.08955728 24.98628219 22.98779297 29.09033203 C19.50241619 31.90931718 16.17908292 32.18783335 11.80419922 32.12402344 C10.70628052 32.13119888 10.70628052 32.13119888 9.58618164 32.13851929 C8.04652747 32.14190508 6.50680012 32.13279512 4.96728516 32.11181641 C2.6222168 32.08502398 0.28193278 32.11160084 -2.06298828 32.14355469 C-3.56560292 32.14025035 -5.0682146 32.13384359 -6.57080078 32.12402344 C-7.26471924 32.13414459 -7.9586377 32.14426575 -8.67358398 32.1546936 C-14.28672682 32.02083147 -16.54494279 30.24539841 -20.38330078 26.45996094 C-23.18127873 23.13081605 -24.63402663 19.75144953 -24.88330078 15.39746094 C-24.16268726 9.7226295 -21.98984369 6.87524874 -17.75830078 3.14746094 C-12.36947477 -0.68144176 -6.38844039 0.08699392 0 0 Z " fill="#1C3240" transform="translate(111.38330078125,243.5400390625)"/>
<path d="M0 0 C1.26199219 -0.00515625 2.52398437 -0.0103125 3.82421875 -0.015625 C5.13003906 -0.00015625 6.43585938 0.0153125 7.78125 0.03125 C9.73998047 0.00804687 9.73998047 0.00804687 11.73828125 -0.015625 C13.00027344 -0.01046875 14.26226562 -0.0053125 15.5625 0 C16.70783203 0.00451172 17.85316406 0.00902344 19.03320312 0.01367188 C24.60356322 0.90131194 28.63993743 4.35048371 32.28125 8.53125 C33.33461511 11.69134533 33.48157888 14.0865636 33.53125 17.40625 C33.55703125 18.43492187 33.5828125 19.46359375 33.609375 20.5234375 C33.06898447 25.47701739 31.33072669 27.65942299 27.53515625 30.8125 C22.20127813 33.59222529 16.13469476 33.12616258 10.26538086 33.05273438 C8.21933991 33.03125619 6.17679437 33.05260908 4.13085938 33.078125 C2.17696289 33.07039063 2.17696289 33.07039063 0.18359375 33.0625 C-0.99726807 33.05798828 -2.17812988 33.05347656 -3.39477539 33.04882812 C-8.51063381 32.25223467 -11.59018165 29.71921668 -15.09375 26.03125 C-17.49178575 20.86624991 -17.47256535 16.1310212 -16.71875 10.53125 C-13.36020474 3.29746022 -7.87274849 0.03101252 0 0 Z " fill="#1B323F" transform="translate(105.71875,391.46875)"/>
<path d="M0 0 C2.06161886 3.77538087 2.24516414 6.48341055 2.23046875 10.8125 C2.23001053 11.46323486 2.22955231 12.11396973 2.2290802 12.78442383 C2.22606798 14.15610586 2.21821255 15.52778479 2.20581055 16.89941406 C2.18756134 18.99296256 2.18530103 21.08606774 2.18554688 23.1796875 C2.14455364 34.31916117 2.14455364 34.31916117 1 38 C1.66 38.33 2.32 38.66 3 39 C2.67 39.66 2.34 40.32 2 41 C1.90716165 42.41747524 1.87626059 43.83924783 1.87695217 45.2597599 C1.87496112 46.15897466 1.87297007 47.05818942 1.87091869 47.98465312 C1.87528795 49.47587516 1.87528795 49.47587516 1.87974548 50.9972229 C1.87889106 52.04840471 1.87803663 53.09958651 1.87715632 54.18262231 C1.87550061 57.72804774 1.8810244 61.27342654 1.88647461 64.81884766 C1.88675649 67.35113016 1.88659874 69.88341274 1.8860321 72.41569519 C1.8858039 77.87940699 1.88865233 83.34310361 1.89426994 88.80681229 C1.90238686 96.70647707 1.90500036 104.60613608 1.90625793 112.50580458 C1.90844815 125.32158132 1.91510742 138.13735171 1.92456055 150.953125 C1.93373545 163.40462207 1.9408159 175.85611742 1.94506836 188.30761719 C1.94533108 189.0747496 1.94559381 189.84188202 1.94586449 190.63226087 C1.9471695 194.48062591 1.94843322 198.32899095 1.94967639 202.177356 C1.96004806 234.11824196 1.97766556 266.0591201 2 298 C1.34 297.67 0.68 297.34 0 297 C-0.8977162 293.70951465 -1.12516304 290.59059898 -1.12584114 287.19270229 C-1.12844889 286.24759743 -1.13105664 285.30249257 -1.13374341 284.32874817 C-1.13151268 283.29861683 -1.12928196 282.2684855 -1.12698364 281.20713806 C-1.12854363 280.10625101 -1.13010362 279.00536396 -1.13171089 277.8711167 C-1.13570601 274.17439955 -1.13253682 270.47772333 -1.12939453 266.78100586 C-1.13074935 264.1329486 -1.13249361 261.48489418 -1.13470459 258.83683777 C-1.13915426 252.38246698 -1.13818873 245.92810782 -1.13529195 239.47373658 C-1.13303184 234.21944954 -1.13272804 228.96516576 -1.13381577 223.71087837 C-1.133969 222.96243202 -1.13412223 222.21398567 -1.13428011 221.44285913 C-1.13459985 219.92211743 -1.13492407 218.40137572 -1.1352527 216.88063402 C-1.1381059 202.61041095 -1.1348245 188.3401943 -1.12945233 174.06997228 C-1.12499816 161.86166774 -1.12574905 149.65337272 -1.13037109 137.44506836 C-1.13574343 123.24850465 -1.1378168 109.05194661 -1.13475883 94.85538203 C-1.13444031 93.33570739 -1.13412594 91.81603275 -1.13381577 90.29635811 C-1.13366149 89.5488093 -1.13350721 88.80126049 -1.13334826 88.03105868 C-1.13249003 82.79905967 -1.13393124 77.56706429 -1.13629532 72.33506584 C-1.13912373 65.93479881 -1.13829235 59.53454401 -1.13301457 53.13427835 C-1.13041597 49.87715444 -1.12985935 46.62005462 -1.13266373 43.3629303 C-1.14397758 28.87486884 -0.90572134 14.46170502 0 0 Z " fill="#C4D0CA" transform="translate(52,127)"/>
<path d="M0 0 C0.66 0.33 1.32 0.66 2 1 C4.48913225 1.09334962 6.94997945 1.12574615 9.43917847 1.11352539 C10.60420558 1.11374868 10.60420558 1.11374868 11.7927686 1.11397648 C14.4111892 1.11327877 17.02954072 1.10542089 19.64794922 1.09765625 C21.5208431 1.09573775 23.3937375 1.09427363 25.26663208 1.0932312 C29.31426812 1.09006084 33.36188349 1.08377665 37.40951157 1.07516479 C43.84650261 1.06162255 50.28348677 1.05574135 56.7204895 1.05102539 C71.59289017 1.03896648 86.46527353 1.01714508 101.33766174 0.99479675 C114.87967125 0.97448581 128.42167393 0.95640573 141.96369565 0.94658184 C147.29462341 0.94247385 152.62553016 0.9362913 157.9564476 0.92483521 C183.32384302 0.87084748 208.64705245 1.10408067 234 2 C231.19054284 3.58238951 229.17484817 4.25042822 225.95542812 4.25447559 C224.75493569 4.26322388 224.75493569 4.26322388 223.53019089 4.27214891 C222.22003316 4.26647992 222.22003316 4.26647992 220.88340759 4.26069641 C219.48488118 4.26643473 219.48488118 4.26643473 218.05810171 4.27228898 C214.92661697 4.28262723 211.79531529 4.27862527 208.66381836 4.2746582 C206.42181732 4.27900415 204.17981777 4.2841869 201.93782043 4.29014587 C195.84299224 4.30355794 189.74822596 4.30411222 183.65338588 4.30158257 C178.57096656 4.30051463 173.48855987 4.30539157 168.40614325 4.310188 C155.73539065 4.32192541 143.06467605 4.32105366 130.39392401 4.31463119 C119.38367515 4.30945899 108.37351469 4.32072514 97.36328333 4.33972941 C86.06188148 4.35908702 74.76052037 4.36707585 63.45909792 4.36360615 C57.11256708 4.36178902 50.76611724 4.36447243 44.41959953 4.37832069 C38.45489904 4.39084858 32.49037624 4.38900289 26.52567863 4.37590981 C24.33224428 4.37353366 22.1387976 4.37631555 19.94537735 4.38453293 C16.95991168 4.39491429 13.97505191 4.38696942 10.98960876 4.3742218 C10.11393956 4.38159609 9.23827035 4.38897037 8.33606571 4.39656812 C2.39272955 4.3428765 2.39272955 4.3428765 0.25507933 2.47657937 C-0.15909685 1.98930818 -0.57327303 1.50203699 -1 1 C-0.67 0.67 -0.34 0.34 0 0 Z " fill="#C3CBCF" transform="translate(111,480)"/>
<path d="M0 0 C0.33 0 0.66 0 1 0 C1.196122 39.78917153 1.37640382 79.57838589 1.53537826 119.36772395 C1.55415114 124.06293948 1.57305546 128.75815447 1.59204102 133.45336914 C1.59581856 134.38812001 1.59959611 135.32287088 1.60348812 136.28594754 C1.6650042 151.4304531 1.73717291 166.57489018 1.8132638 181.71932872 C1.89107674 197.25359554 1.95747594 212.78788076 2.01323253 228.32224256 C2.04801127 237.91133222 2.09174125 247.5002959 2.14684484 257.08929066 C2.18375585 263.66071765 2.20960152 270.2321295 2.22667392 276.80363777 C2.23685964 280.59767275 2.25199249 284.39152153 2.28024101 288.18546867 C2.31071738 292.29571829 2.31792697 296.40567744 2.32279968 300.51603699 C2.33542916 301.7193396 2.34805863 302.92264221 2.36107081 304.16240853 C2.35858106 305.26266659 2.35609131 306.36292465 2.35352612 307.49652386 C2.35770304 308.44544496 2.36187996 309.39436607 2.36618346 310.37204236 C1.92903826 313.50926508 0.72614172 315.3752391 -1 318 C-1.55672814 320.19519217 -1.55672814 320.19519217 -1.6875 322.3125 C-1.790625 323.529375 -1.89375 324.74625 -2 326 C-2.99 326.33 -3.98 326.66 -5 327 C-6.34950195 322.48173082 -5.52353215 319.50404522 -4.125 315.0625 C-2.18492026 308.82846755 -0.88034709 303.09092798 -0.8613348 296.54526711 C-0.85312313 294.94936947 -0.85312313 294.94936947 -0.84474558 293.32123148 C-0.84376747 292.16364215 -0.84278936 291.00605281 -0.84178162 289.81338501 C-0.83684364 288.57502565 -0.83190566 287.33666629 -0.82681805 286.06078088 C-0.81412733 282.63105292 -0.8058292 279.20136538 -0.79939139 275.77162337 C-0.79137138 272.07025102 -0.77767913 268.36889911 -0.76467896 264.6675415 C-0.7429389 258.25718452 -0.72478539 251.84682544 -0.70907402 245.43645096 C-0.68635287 236.16814783 -0.65821316 226.89986737 -0.62875474 217.6315835 C-0.58110635 202.59408 -0.53783471 187.55656723 -0.49731445 172.51904297 C-0.45794552 157.91226479 -0.41651594 143.30549486 -0.37231445 128.69873047 C-0.36959018 127.79823415 -0.36686591 126.89773782 -0.36405908 125.96995373 C-0.35037937 121.45238792 -0.33665915 116.93482222 -0.32291877 112.41725659 C-0.20899724 74.94485485 -0.10217833 37.47243551 0 0 Z " fill="#ACADAA" transform="translate(431,125)"/>
<path d="M0 0 C0.66 0 1.32 0 2 0 C1.86722656 0.72445312 1.73445313 1.44890625 1.59765625 2.1953125 C1.42105469 3.16210938 1.24445312 4.12890625 1.0625 5.125 C0.88847656 6.07632813 0.71445312 7.02765625 0.53515625 8.0078125 C0.35855469 8.99523437 0.18195312 9.98265625 0 11 C-0.17277434 11.88962748 -0.34554869 12.77925495 -0.52355862 13.69584084 C-1.06240715 17.4327986 -1.15305949 21.09272458 -1.15821838 24.85873413 C-1.16315636 25.63156852 -1.16809434 26.40440292 -1.17318195 27.20065653 C-1.18849189 29.78009056 -1.19689986 32.35949983 -1.20532227 34.93896484 C-1.21490591 36.79204525 -1.22491627 38.64512349 -1.23532104 40.49819946 C-1.26232349 45.52246345 -1.28335827 50.54673678 -1.30332303 55.571033 C-1.32521135 60.82411617 -1.35258611 66.07717068 -1.37937927 71.33023071 C-1.42926768 81.27481882 -1.4742208 91.21942287 -1.51740164 101.16404212 C-1.56680694 112.48683845 -1.62171285 123.80960602 -1.67708123 135.13237453 C-1.79084214 158.42155617 -1.897694 181.71076542 -2 205 C-2.66 204.67 -3.32 204.34 -4 204 C-4.02341241 180.92036148 -4.04102004 157.84072493 -4.05181217 134.76107693 C-4.05695745 124.04359476 -4.0639663 113.32611999 -4.07543945 102.60864258 C-4.08544048 93.26183713 -4.09186628 83.91503705 -4.09408849 74.5682264 C-4.09538643 69.62415119 -4.0984138 64.68009131 -4.10573006 59.73602104 C-4.11257596 55.07149958 -4.11459973 50.40699961 -4.11310768 45.7424736 C-4.11338019 44.04107483 -4.11533403 42.33967526 -4.11920547 40.63828087 C-4.1799704 12.52739269 -4.1799704 12.52739269 -1 1 C-0.67 0.67 -0.34 0.34 0 0 Z " fill="#E5DDDA" transform="translate(27,106)"/>
<path d="M0 0 C0.8593364 -0.00014603 1.71867279 -0.00029205 2.60404968 -0.0004425 C5.42298982 0.00024994 8.24186253 0.00801086 11.06079102 0.01586914 C13.02376774 0.0177357 14.98674493 0.01915848 16.94972229 0.02015686 C22.10026347 0.02396333 27.25077617 0.03377756 32.40130615 0.04486084 C37.66344823 0.05511526 42.92559494 0.0596631 48.18774414 0.06469727 C58.50090765 0.07540158 68.81405008 0.09245543 79.12719727 0.11352539 C79.12719727 1.10352539 79.12719727 2.09352539 79.12719727 3.11352539 C77.98127609 3.12383286 76.83535492 3.13414032 75.65470886 3.14476013 C64.86865518 3.24241043 54.08266026 3.34513656 43.29670238 3.45286465 C37.75120736 3.50808797 32.20570705 3.5615071 26.66015625 3.61083984 C21.3109147 3.65849201 15.96173794 3.71083524 10.61257362 3.76646614 C8.56920289 3.78688581 6.52581439 3.80559953 4.48241234 3.82259941 C1.62590472 3.84665191 -1.23048022 3.87670547 -4.08691406 3.90820312 C-4.93639618 3.91395859 -5.7858783 3.91971405 -6.66110229 3.92564392 C-9.97593275 3.96733909 -12.70680456 4.05819266 -15.87280273 5.11352539 C-15.87280273 3.79352539 -15.87280273 2.47352539 -15.87280273 1.11352539 C-10.53230908 0.21982345 -5.40886336 -0.02437809 0 0 Z " fill="#E8EDF8" transform="translate(189.872802734375,242.886474609375)"/>
<path d="M0 0 C1.43583696 -0.00067505 2.8716738 -0.00164675 4.30751038 -0.00289917 C7.2952688 -0.00436334 10.28299707 -0.0022609 13.27075195 0.00244141 C17.09953897 0.00817435 20.92825643 0.00482924 24.75704098 -0.00113106 C27.71239245 -0.00474054 30.66772734 -0.00359692 33.6230793 -0.00100327 C35.03568086 -0.00033694 36.44828392 -0.00115212 37.86088371 -0.00348282 C39.82774705 -0.00601958 41.7946157 -0.00146825 43.76147461 0.00341797 C45.43831581 0.00461136 45.43831581 0.00461136 47.14903259 0.00582886 C49.91015625 0.1328125 49.91015625 0.1328125 52.91015625 1.1328125 C53.90015625 0.8028125 54.89015625 0.4728125 55.91015625 0.1328125 C58.171875 0.47265625 58.171875 0.47265625 60.59765625 1.0703125 C61.40589844 1.26496094 62.21414063 1.45960938 63.046875 1.66015625 C63.96919922 1.89412109 63.96919922 1.89412109 64.91015625 2.1328125 C64.91015625 2.4628125 64.91015625 2.7928125 64.91015625 3.1328125 C34.55015625 3.1328125 4.19015625 3.1328125 -27.08984375 3.1328125 C-21.46090415 -2.4961271 -7.4560969 -0.01244581 0 0 Z " fill="#EEF5F4" transform="translate(202.08984375,390.8671875)"/>
<path d="M0 0 C0.33 0 0.66 0 1 0 C1.13235275 10.99017211 1.26284859 21.98036469 1.39115143 32.97058487 C1.45082061 38.07708036 1.51106401 43.18356755 1.57275391 48.29003906 C1.84501299 70.86077729 2.09711266 93.42728221 2 116 C1.67 116 1.34 116 1 116 C-1.90107736 104.19249596 -1.15320521 92.13611482 -0.9765625 80.078125 C-0.95035602 77.76358047 -0.92509225 75.44902509 -0.90072632 73.13446045 C-0.83446094 67.07802469 -0.75548658 61.02182049 -0.67376709 54.96557617 C-0.59246842 48.77141119 -0.52332473 42.57711145 -0.453125 36.3828125 C-0.31390656 24.25504692 -0.16124693 12.12749131 0 0 Z " fill="#00141A" transform="translate(351,259)"/>
<path d="M0 0 C27.72 0 55.44 0 84 0 C84 0.33 84 0.66 84 1 C82.91468994 1.02505615 81.82937988 1.0501123 80.71118164 1.07592773 C76.698684 1.16983755 72.68636618 1.27009767 68.67407227 1.37231445 C66.93485712 1.41572573 65.19559765 1.45739612 63.45629883 1.49731445 C60.96161512 1.55486768 58.4671559 1.6186042 55.97265625 1.68359375 C55.19036148 1.70030624 54.40806671 1.71701874 53.60206604 1.73423767 C50.00128219 1.50648731 50.00128219 1.50648731 47 3 C45.67087353 3.10816244 44.33615049 3.14898654 43.00268555 3.16113281 C42.15477951 3.17074036 41.30687347 3.1803479 40.43327332 3.19024658 C39.04897881 3.1966214 39.04897881 3.1966214 37.63671875 3.203125 C36.22142632 3.21167511 36.22142632 3.21167511 34.77754211 3.22039795 C32.77594123 3.22986457 30.77432465 3.2363885 28.77270508 3.24023438 C25.71082257 3.24992618 22.649615 3.2809282 19.58789062 3.3125 C17.64583733 3.31903111 15.70377922 3.32428116 13.76171875 3.328125 C12.84492844 3.3404718 11.92813812 3.3528186 10.98356628 3.36553955 C10.12620377 3.36253845 9.26884125 3.35953735 8.38549805 3.35644531 C7.25751045 3.36191376 7.25751045 3.36191376 6.10673523 3.36749268 C4 3 4 3 0 0 Z " fill="#071830" transform="translate(181,246)"/>
<path d="M0 0 C0.33 0 0.66 0 1 0 C1.02350035 8.45159814 1.04110214 16.90318192 1.05181217 25.35480499 C1.05696064 29.28212158 1.06390567 33.20941531 1.07543945 37.13671875 C1.12784749 55.45108272 1.01306034 73.70601308 0 92 C-0.99 92 -1.98 92 -3 92 C-3.02687279 90.18757948 -3.04633715 88.37504767 -3.0625 86.5625 C-3.07410156 85.55316406 -3.08570313 84.54382813 -3.09765625 83.50390625 C-3 81 -3 81 -2 80 C-1.92446103 77.8775437 -1.91691624 75.7526066 -1.9375 73.62890625 C-1.94523437 72.33275391 -1.95296875 71.03660156 -1.9609375 69.70117188 C-1.97962591 67.62946319 -2.00004666 65.55777583 -2.02050781 63.48608398 C-2.03855115 61.49205725 -2.05061283 59.49797919 -2.0625 57.50390625 C-2.07410156 56.30580322 -2.08570313 55.1077002 -2.09765625 53.87329102 C-2 51 -2 51 -1 49 C-0.88159887 47.42793357 -0.82296967 45.85116731 -0.79467773 44.27490234 C-0.77473251 43.29403656 -0.75478729 42.31317078 -0.73423767 41.30258179 C-0.71752518 40.24108917 -0.70081268 39.17959656 -0.68359375 38.0859375 C-0.66281265 37.00116119 -0.64203156 35.91638489 -0.62062073 34.79873657 C-0.55509366 31.32422379 -0.49622553 27.84963376 -0.4375 24.375 C-0.39431779 22.02342942 -0.3507036 19.67186674 -0.30664062 17.3203125 C-0.19940907 11.5469573 -0.09764856 5.7735248 0 0 Z " fill="#BFC4C4" transform="translate(326,251)"/>
<path d="M0 0 C25.08 0 50.16 0 76 0 C76 0.66 76 1.32 76 2 C75.18772949 1.99476318 74.37545898 1.98952637 73.53857422 1.98413086 C69.65072558 1.96260738 65.76289213 1.94766794 61.875 1.9375 C61.16502869 1.93555634 60.45505737 1.93361267 59.72357178 1.93161011 C47.54108561 1.90851583 35.39321761 2.20303477 23.22216797 2.73217773 C21.44543701 2.80480835 21.44543701 2.80480835 19.6328125 2.87890625 C18.59012207 2.9260376 17.54743164 2.97316895 16.47314453 3.02172852 C14 3 14 3 12 2 C9.9625237 1.77141886 7.91959697 1.58975722 5.875 1.4375 C4.23144531 1.31181641 4.23144531 1.31181641 2.5546875 1.18359375 C1.71164063 1.12300781 0.86859375 1.06242187 0 1 C0 0.67 0 0.34 0 0 Z " fill="#E1E0D6" transform="translate(125,510)"/>
<path d="M0 0 C0.33 0 0.66 0 1 0 C1.1769008 10.37872294 1.3428609 20.75755723 1.49477577 31.13667774 C1.56565811 35.9558892 1.64033718 40.77497999 1.72363281 45.59399414 C1.80384822 50.24282806 1.87416921 54.89171517 1.93757248 59.54080772 C1.96353682 61.31630677 1.99309281 63.09175698 2.02626419 64.867136 C2.07204548 67.34994926 2.10516211 69.83262786 2.13525391 72.31567383 C2.1517952 73.05294708 2.16833649 73.79022034 2.18537903 74.54983521 C2.21656273 78.27799167 2.12739547 79.80890679 0 83 C-1.28407611 73.58344188 -0.89809582 64.34052306 -0.5625 54.875 C-0.50916411 53.23439444 -0.45642492 51.59376938 -0.40429688 49.953125 C-0.27640934 45.96849171 -0.14045055 41.98420944 0 38 C-0.66 37.67 -1.32 37.34 -2 37 C-1.505 36.505 -1.505 36.505 -1 36 C-0.9514532 33.16001217 -0.95814063 30.33900174 -1 27.5 C-1.07731925 18.29461593 -0.65816856 9.17910083 0 0 Z " fill="#DDD6D2" transform="translate(24,343)"/>
<path d="M0 0 C0.495 1.485 0.495 1.485 1 3 C-7.68284274 13.05864529 -21.35993912 20.78310154 -34.6640625 22.3046875 C-36.875 22.3125 -36.875 22.3125 -40 22 C-39.67 21.34 -39.34 20.68 -39 20 C-36.41796875 19.21875 -36.41796875 19.21875 -33.1875 18.5 C-29.4895117 17.67121821 -26.33490266 16.79919128 -23 15 C-22.38125 14.855625 -21.7625 14.71125 -21.125 14.5625 C-18.76476503 14.01483464 -18.76476503 14.01483464 -15.875 12.4375 C-13 11 -13 11 -11 11 C-11 10.34 -11 9.68 -11 9 C-10.01 9 -9.02 9 -8 9 C-8 8.34 -8 7.68 -8 7 C-6.25 5.2734375 -6.25 5.2734375 -4 3.375 C-3.2575 2.74335938 -2.515 2.11171875 -1.75 1.4609375 C-0.88375 0.73777344 -0.88375 0.73777344 0 0 Z " fill="#EBF2EE" transform="translate(386,460)"/>
<path d="M0 0 C1.06367294 0.00222061 2.12734589 0.00444122 3.22325134 0.00672913 C5.02500572 0.00684242 5.02500572 0.00684242 6.86315918 0.00695801 C8.17042465 0.01211929 9.47769012 0.01728058 10.8245697 0.02259827 C12.16835477 0.02446253 13.51214052 0.02588639 14.85592651 0.02688599 C18.39873622 0.0307105 21.94150515 0.0405402 25.48429871 0.05158997 C29.09706572 0.06180552 32.7098393 0.06638392 36.32261658 0.07142639 C43.41573225 0.08216254 50.50882019 0.09923816 57.60191345 0.12025452 C53.60602513 2.3414862 50.16317329 2.36211961 45.68003845 2.28041077 C44.51356781 2.27260841 44.51356781 2.27260841 43.3235321 2.26464844 C40.8328008 2.24687616 38.34248497 2.21582374 35.85191345 2.18275452 C32.60715145 2.14564017 29.36243041 2.1159599 26.11753845 2.09291077 C25.32158264 2.08587128 24.52562683 2.07883179 23.70555115 2.07157898 C17.03562251 2.04531339 10.45536507 2.48267843 3.81578064 3.09461975 C0.66254854 3.11977087 -0.80189211 2.82436273 -3.39808655 1.12025452 C-2.39808655 0.12025452 -2.39808655 0.12025452 0 0 Z " fill="#FBFBF3" transform="translate(179.39808654785156,347.87974548339844)"/>
<path d="M0 0 C1.19238281 -0.01224609 2.38476562 -0.02449219 3.61328125 -0.03710938 C4.75410156 -0.03904297 5.89492187 -0.04097656 7.0703125 -0.04296875 C8.63289795 -0.04913208 8.63289795 -0.04913208 10.22705078 -0.05541992 C12.875 0.1875 12.875 0.1875 15.875 2.1875 C15.00286865 2.1968457 14.1307373 2.20619141 13.23217773 2.21582031 C9.96821831 2.26007151 6.70552787 2.32178674 3.44213867 2.39501953 C2.03503296 2.42308744 0.62777373 2.44437203 -0.77954102 2.45849609 C-11.66228249 2.40965162 -11.66228249 2.40965162 -21.125 7.1875 C-24.84248082 12.26805712 -24.81056659 18.09399731 -25.125 24.1875 C-25.785 23.8575 -26.445 23.5275 -27.125 23.1875 C-27.15194851 21.22924127 -27.17137218 19.27087774 -27.1875 17.3125 C-27.19910156 16.22195313 -27.21070312 15.13140625 -27.22265625 14.0078125 C-27.125 11.1875 -27.125 11.1875 -26.125 9.1875 C-25.465 9.1875 -24.805 9.1875 -24.125 9.1875 C-23.8775 8.61 -23.63 8.0325 -23.375 7.4375 C-21.90997722 4.80045899 -20.44997923 3.11391136 -18.125 1.1875 C-12.20955881 -0.39212625 -6.07479656 0.00330511 0 0 Z " fill="#F4F7F4" transform="translate(113.125,313.8125)"/>
<path d="M0 0 C0.99 0 1.98 0 3 0 C1.72026236 4.69237133 -0.96884608 7.16056126 -4.44140625 10.3515625 C-6.24252961 12.02427051 -6.24252961 12.02427051 -7 15 C-7.66 15 -8.32 15 -9 15 C-9 15.66 -9 16.32 -9 17 C-9.66 17 -10.32 17 -11 17 C-11 17.66 -11 18.32 -11 19 C-12.8984375 20.69140625 -12.8984375 20.69140625 -15.375 22.5625 C-16.18710937 23.18253906 -16.99921875 23.80257813 -17.8359375 24.44140625 C-20 26 -20 26 -22 27 C-21.50321948 22.94295908 -20.70466048 21.26794752 -17.5 18.75 C-11.68677181 13.95095011 -5.62223949 8.90631505 -1.625 2.4375 C-1.08875 1.633125 -0.5525 0.82875 0 0 Z " fill="#D5D0C7" transform="translate(415,468)"/>
<path d="M0 0 C2.57687301 3.87044272 2.3316159 7.96055508 2.3125 12.4375 C2.32861328 13.18837891 2.34472656 13.93925781 2.36132812 14.71289062 C2.36547436 19.42716459 1.71317257 22.02068024 -1 26 C-1.55672814 28.19519217 -1.55672814 28.19519217 -1.6875 30.3125 C-1.8421875 32.1378125 -1.8421875 32.1378125 -2 34 C-3.485 34.495 -3.485 34.495 -5 35 C-6.27316864 30.62905797 -5.60879059 27.96141621 -4.1875 23.6875 C-1.78976213 15.86373941 -0.80181232 8.12362487 0 0 Z " fill="#D7D0CB" transform="translate(431,417)"/>
<path d="M0 0 C-3.61277387 3.5369151 -7.38756808 3.54312155 -12.1875 3.6875 C-13.33424194 3.73547729 -13.33424194 3.73547729 -14.50415039 3.78442383 C-16.66922192 3.86995695 -18.83420401 3.93611221 -21 4 C-22.36898437 4.061875 -22.36898437 4.061875 -23.765625 4.125 C-29.35701389 4.28590328 -34.5677634 3.27016806 -40 2 C-40 1.67 -40 1.34 -40 1 C-38.9805127 0.97494385 -37.96102539 0.9498877 -36.91064453 0.92407227 C-33.13479646 0.83002996 -29.35913373 0.72980163 -25.58349609 0.62768555 C-23.94812347 0.58432462 -22.31270523 0.54265039 -20.67724609 0.50268555 C-18.32896159 0.44501088 -15.98090696 0.38130871 -13.6328125 0.31640625 C-12.89942657 0.29969376 -12.16604065 0.28298126 -11.41043091 0.26576233 C-0.20845785 -0.06253735 -0.20845785 -0.06253735 0 0 Z " fill="#EEF5F1" transform="translate(136,348)"/>
<path d="M0 0 C0.66 0.33 1.32 0.66 2 1 C1.77183594 1.54269531 1.54367187 2.08539063 1.30859375 2.64453125 C0.87740234 3.71767578 0.87740234 3.71767578 0.4375 4.8125 C0.14746094 5.52019531 -0.14257812 6.22789063 -0.44140625 6.95703125 C-1.25063024 9.1735067 -1.25063024 9.1735067 0 12 C-0.99 12.495 -0.99 12.495 -2 13 C-2.33 12.34 -2.66 11.68 -3 11 C-5.59654239 13.29324257 -6.77597937 15.42692848 -8.0625 18.625 C-9.78115502 22.89057751 -9.78115502 22.89057751 -12 24 C-12.66 23.67 -13.32 23.34 -14 23 C-14.33 23.66 -14.66 24.32 -15 25 C-15.8125 23.3125 -15.8125 23.3125 -16 21 C-13.9375 18.75 -13.9375 18.75 -12.52734375 17.47265625 C-7.38774659 12.51708558 -3.65413221 6.0794412 0 0 Z " fill="#EBF5F9" transform="translate(292,73)"/>
<path d="M0 0 C0.99 0.66 1.98 1.32 3 2 C1.9171875 2.928125 1.9171875 2.928125 0.8125 3.875 C-2.26745867 6.93765553 -3.82652269 10.46636944 -5.67578125 14.3515625 C-7.71622819 18.43245639 -9.96772427 22.57004877 -13 26 C-13.99 26 -14.98 26 -16 26 C-16.33 25.01 -16.66 24.02 -17 23 C-16.01 22.67 -15.02 22.34 -14 22 C-13.26676204 19.98491642 -13.26676204 19.98491642 -13 18 C-12.34 18 -11.68 18 -11 18 C-11 16.68 -11 15.36 -11 14 C-10.34 14 -9.68 14 -9 14 C-7.79719149 11.59438297 -7.03973125 9.12912657 -6.25 6.5625 C-4.72080707 3.4276545 -2.81430471 1.99963756 0 0 Z " fill="#1C404A" transform="translate(142,173)"/>
<path d="M0 0 C7.68635346 -0.02542668 15.37269601 -0.0428991 23.05908203 -0.05493164 C25.67204188 -0.05994971 28.28499894 -0.06676562 30.89794922 -0.07543945 C34.66113984 -0.08761575 38.42429322 -0.09325368 42.1875 -0.09765625 C43.34926758 -0.10281754 44.51103516 -0.10797882 45.70800781 -0.11329651 C51.57168136 -0.11369894 57.20264581 0.10500248 63 1 C59.28486021 3.37957055 56.02254106 3.23542508 51.6875 3.1875 C49.77517578 3.17783203 49.77517578 3.17783203 47.82421875 3.16796875 C44 3 44 3 40.80957031 2.50927734 C36.5929427 1.94558309 32.47045314 1.77540855 28.22265625 1.68359375 C27.41130722 1.66281265 26.59995819 1.64203156 25.76402283 1.62062073 C23.19692661 1.55574357 20.62973663 1.49653078 18.0625 1.4375 C16.31183964 1.39425582 14.56118842 1.35063974 12.81054688 1.30664062 C8.54045829 1.2001265 4.27027632 1.09868886 0 1 C0 0.67 0 0.34 0 0 Z " fill="#BFC6D1" transform="translate(178,196)"/>
<path d="M0 0 C0.66 0.99 1.32 1.98 2 3 C0.7934375 4.36125 0.7934375 4.36125 -0.4375 5.75 C-2.3967728 8.1144482 -3.78959187 9.84387804 -4 13 C-3.814375 13.70125 -3.62875 14.4025 -3.4375 15.125 C-3.293125 15.74375 -3.14875 16.3625 -3 17 C-3.66 17.66 -4.32 18.32 -5 19 C-5.33 18.01 -5.66 17.02 -6 16 C-6.66 16 -7.32 16 -8 16 C-8.2475 16.5775 -8.495 17.155 -8.75 17.75 C-10.16683317 20.3002997 -11.87627537 22.01785701 -14 24 C-13.44591574 20.18816731 -12.43495813 17.79980278 -10.1875 14.6875 C-8.11526152 11.72291001 -6.34861983 8.83717406 -4.8125 5.5625 C-3 2 -3 2 0 0 Z " fill="#E7F1F3" transform="translate(144,175)"/>
<path d="M0 0 C3.74670984 2.66213594 5.89541254 4.48123313 7 9 C7.56042484 13.73343438 7.6593149 16.923119 5.125 21.0625 C3 23 3 23 1 23 C1.33 24.65 1.66 26.3 2 28 C0.35 27.67 -1.3 27.34 -3 27 C-1.62567077 22.99153975 0.2889438 20.23577676 3 17 C4.43304064 14.13391871 4.30644155 12.18699217 4 9 C2.72245446 6.9639118 1.39300182 4.95890881 0 3 C0 2.01 0 1.02 0 0 Z " fill="#EAF3F6" transform="translate(170,127)"/>
<path d="M0 0 C0 0.66 0 1.32 0 2 C0.66 2.33 1.32 2.66 2 3 C1.45730469 3.24234375 0.91460937 3.4846875 0.35546875 3.734375 C-5.18814102 6.32074601 -5.18814102 6.32074601 -9 11 C-9.99 12.485 -9.99 12.485 -11 14 C-11.24055468 16.05709596 -11.24055468 16.05709596 -11.125 18.1875 C-11.08375 19.445625 -11.0425 20.70375 -11 22 C-11.66 22 -12.32 22 -13 22 C-13.62329486 12.26967471 -13.62329486 12.26967471 -11.3125 7.5625 C-4.48780488 0 -4.48780488 0 0 0 Z " fill="#EAF4F4" transform="translate(197,35)"/>
<path d="M0 0 C1.29873047 0.00644531 2.59746094 0.01289062 3.93554688 0.01953125 C5.30729432 0.0362419 6.67903911 0.05317179 8.05078125 0.0703125 C9.43423843 0.08034576 10.81770252 0.08947101 12.20117188 0.09765625 C15.58871577 0.12126283 18.97591197 0.15419213 22.36328125 0.1953125 C22.03328125 1.8453125 21.70328125 3.4953125 21.36328125 5.1953125 C21.03328125 4.2053125 20.70328125 3.2153125 20.36328125 2.1953125 C10.46328125 2.1953125 0.56328125 2.1953125 -9.63671875 2.1953125 C-6.00365817 -0.22672788 -4.31852852 -0.03771641 0 0 Z " fill="#333E43" transform="translate(114.63671875,39.8046875)"/>
<path d="M0 0 C0.33 0 0.66 0 1 0 C0.80750857 11.16450299 -4.75185316 20.76460557 -12 29 C-13 26 -13 26 -11.6875 23.3125 C-10.8521875 22.1678125 -10.8521875 22.1678125 -10 21 C-9.34 21 -8.68 21 -8 21 C-8 19.35 -8 17.7 -8 16 C-7.01 16 -6.02 16 -5 16 C-4.80664062 15.34773438 -4.61328125 14.69546875 -4.4140625 14.0234375 C-3.01359552 9.3228602 -1.58791274 4.64159109 0 0 Z " fill="#EBF1ED" transform="translate(402,430)"/>
<path d="M0 0 C-0.86625 0.4021875 -0.86625 0.4021875 -1.75 0.8125 C-4.02588057 1.93103955 -4.02588057 1.93103955 -5.9375 3.5 C-8 5 -8 5 -10.6875 5.9375 C-11.8321875 6.4634375 -11.8321875 6.4634375 -13 7 C-13.65213292 9.02463255 -13.65213292 9.02463255 -14 11 C-14.99 11.33 -15.98 11.66 -17 12 C-17 11.34 -17 10.68 -17 10 C-17.99 9.67 -18.98 9.34 -20 9 C-7.67344413 -0.45137907 -7.67344413 -0.45137907 0 0 Z M-22 10 C-21.34 10.33 -20.68 10.66 -20 11 C-20.99 11.66 -21.98 12.32 -23 13 C-22.67 12.01 -22.34 11.02 -22 10 Z " fill="#E3ECED" transform="translate(90,73)"/>
<path d="M0 0 C7.15801225 5.82628904 13.52591766 12.4382985 20 19 C19.67 19.99 19.34 20.98 19 22 C17 20 17 20 16 18 C15.38640625 17.7009375 14.7728125 17.401875 14.140625 17.09375 C11.73646591 15.86534754 10.47727367 14.55877063 8.75 12.5 C8.22921875 11.8915625 7.7084375 11.283125 7.171875 10.65625 C6 9 6 9 6 7 C5.01 6.67 4.02 6.34 3 6 C0.8614515 3.8614515 0.57344937 2.86724686 0 0 Z " fill="#091325" transform="translate(193,73)"/>
<path d="M0 0 C14.70565891 -0.12375296 29.3206789 0.09066152 44 1 C44 1.33 44 1.66 44 2 C39.7643915 2.16752496 35.52859426 2.32809332 31.29248047 2.48217773 C29.85100177 2.5355959 28.40959259 2.59092518 26.96826172 2.64819336 C24.89826447 2.73010997 22.82811573 2.80518359 20.7578125 2.87890625 C19.5114502 2.9260376 18.26508789 2.97316895 16.98095703 3.02172852 C14 3 14 3 12 2 C9.9625237 1.77141886 7.91959697 1.58975722 5.875 1.4375 C4.23144531 1.31181641 4.23144531 1.31181641 2.5546875 1.18359375 C1.71164063 1.12300781 0.86859375 1.06242187 0 1 C0 0.67 0 0.34 0 0 Z " fill="#DAD3CB" transform="translate(125,510)"/>
<path d="M0 0 C7.92 0 15.84 0 24 0 C21 3 21 3 17.92578125 3.328125 C16.73339844 3.30234375 15.54101562 3.2765625 14.3125 3.25 C13.06855469 3.22421875 11.82460937 3.1984375 10.54296875 3.171875 C6.63523169 2.98230451 2.86113922 2.61778228 -1 2 C-0.67 1.34 -0.34 0.68 0 0 Z " fill="#FCFCF2" transform="translate(238,348)"/>
<path d="M0 0 C1.32 0 2.64 0 4 0 C4.9765625 1.79036458 5.953125 3.58072917 6.9296875 5.37109375 C7.91410024 7.16618315 7.91410024 7.16618315 10 8 C11 9.7421875 11 9.7421875 12 11.875 C13.21201839 14.44107018 14.41269132 16.61903698 16 19 C15.625 21.6875 15.625 21.6875 15 24 C13.28287283 21.42430924 11.74596557 18.80938964 10.23242188 16.11181641 C7.08842634 10.50992156 3.9006495 5.11960247 0 0 Z " fill="#D5CDCF" transform="translate(409,71)"/>
<path d="M0 0 C0.66 0.66 1.32 1.32 2 2 C-5.45504994 2.94578992 -12.86725407 3.30607643 -20.375 3.5625 C-21.54933594 3.60568359 -22.72367187 3.64886719 -23.93359375 3.69335938 C-32.4124504 4 -32.4124504 4 -36 4 C-36 3.34 -36 2.68 -36 2 C-35.30438965 1.97494385 -34.6087793 1.9498877 -33.89208984 1.92407227 C-30.71956545 1.80754026 -27.54729645 1.68507432 -24.375 1.5625 C-22.73337891 1.50352539 -22.73337891 1.50352539 -21.05859375 1.44335938 C-19.46337891 1.38051758 -19.46337891 1.38051758 -17.8359375 1.31640625 C-16.37486572 1.26141968 -16.37486572 1.26141968 -14.88427734 1.20532227 C-9.83642938 0.84598249 -5.09029906 -0.34706585 0 0 Z " fill="#E1DFD6" transform="translate(353,508)"/>
<path d="M0 0 C0.66 0 1.32 0 2 0 C1.76363489 4.09420857 1.51515421 8.18748216 1.25537109 12.28027344 C1.16869259 13.67297292 1.08534056 15.06588355 1.00537109 16.45898438 C0.88991875 18.46015842 0.76154876 20.46057409 0.6328125 22.4609375 C0.55949707 23.66540527 0.48618164 24.86987305 0.41064453 26.11083984 C0 29 0 29 -2 31 C-1.98839844 30.03578125 -1.97679687 29.0715625 -1.96484375 28.078125 C-1.95582031 26.81484375 -1.94679688 25.5515625 -1.9375 24.25 C-1.92009766 22.37054688 -1.92009766 22.37054688 -1.90234375 20.453125 C-1.98070653 17.68221701 -2.31180015 15.63099411 -3 13 C-2.34938905 11.32700041 -1.67966676 9.66140763 -1 8 C-0.5436188 5.33612278 -0.27373139 2.69169201 0 0 Z " fill="#F5F9F4" transform="translate(294,162)"/>
<path d="M0 0 C1.4540625 0.0309375 1.4540625 0.0309375 2.9375 0.0625 C-0.11031893 2.4747548 -3.26445852 4.35142115 -6.6875 6.1875 C-7.64914063 6.70570312 -8.61078125 7.22390625 -9.6015625 7.7578125 C-11.08030434 8.5417804 -12.56549416 9.31399708 -14.0625 10.0625 C-14.3925 9.0725 -14.7225 8.0825 -15.0625 7.0625 C-14.0725 6.4025 -13.0825 5.7425 -12.0625 5.0625 C-11.33867533 3.00324861 -11.33867533 3.00324861 -11.0625 1.0625 C-9.928125 1.083125 -8.79375 1.10375 -7.625 1.125 C-3.70384291 1.05620777 -3.73763955 0.07627836 0 0 Z " fill="#CED0C8" transform="translate(79.0625,45.9375)"/>
<path d="M0 0 C-3.22127045 1.67228633 -6.51577495 3.06560274 -9.875 4.4375 C-14.01087492 6.14645565 -18.04338846 7.91178835 -22 10 C-22 8.68 -22 7.36 -22 6 C-20.9275 5.54625 -19.855 5.0925 -18.75 4.625 C-15.44462669 3.20841144 -12.20217832 1.78763407 -9.1875 -0.1875 C-5.96309223 -1.38513717 -3.31516489 -0.63753171 0 0 Z " fill="#EBF2F2" transform="translate(339,118)"/>
<path d="M0 0 C0.66 0 1.32 0 2 0 C0.54301636 4.1281203 -1.50926236 7.41040752 -4 11 C-4.75236055 12.12342272 -5.50244875 13.24837134 -6.25 14.375 C-6.8275 15.24125 -7.405 16.1075 -8 17 C-8.66 15.68 -9.32 14.36 -10 13 C-8.71053695 11.20674674 -7.41835648 9.41544722 -6.125 7.625 C-5.04605469 6.12839844 -5.04605469 6.12839844 -3.9453125 4.6015625 C-2 2 -2 2 0 0 Z " fill="#264958" transform="translate(291,71)"/>
<path d="M0 0 C0.33 0 0.66 0 1 0 C1.0501123 0.69561035 1.10022461 1.3912207 1.15185547 2.10791016 C1.38495478 5.28091502 1.62986679 8.45290307 1.875 11.625 C1.95363281 12.71941406 2.03226562 13.81382812 2.11328125 14.94140625 C2.53406529 20.2821268 3.07538971 24.95619373 5 30 C4.625 32.375 4.625 32.375 4 34 C1.34701864 28.1173022 -0.1358467 23.22978632 -0.09765625 16.69921875 C-0.09443359 15.72275391 -0.09121094 14.74628906 -0.08789062 13.74023438 C-0.07951172 12.73283203 -0.07113281 11.72542969 -0.0625 10.6875 C-0.05798828 9.66076172 -0.05347656 8.63402344 -0.04882812 7.57617188 C-0.03708184 5.05072118 -0.02065565 2.52539095 0 0 Z " fill="#0C1826" transform="translate(295,173)"/>
<path d="M0 0 C0.640625 1.80078125 0.640625 1.80078125 1 4 C-0.19009176 5.68596333 -1.38951433 7.36693093 -2.65625 8.99609375 C-4.91917667 12.37074892 -5.88895951 16.12637236 -7 20 C-7.33 20.99 -7.66 21.98 -8 23 C-8.33 23 -8.66 23 -9 23 C-10.13505471 14.73031572 -6.30592711 8.87779307 -2 2 C-1.34 1.34 -0.68 0.68 0 0 Z " fill="#ECF6F9" transform="translate(64,89)"/>
<path d="M0 0 C9.57 0 19.14 0 29 0 C28.01 0.99 27.02 1.98 26 3 C23.91796875 2.68359375 23.91796875 2.68359375 21 2 C16.89709095 1.88165581 12.78824793 2.02629206 8.68554688 2.12695312 C7.85732422 2.13791016 7.02910156 2.14886719 6.17578125 2.16015625 C5.04523315 2.18541382 5.04523315 2.18541382 3.8918457 2.21118164 C2 2 2 2 0 0 Z " fill="#F7FAF7" transform="translate(109,66)"/>
<path d="M0 0 C0.33 0 0.66 0 1 0 C1 9.24 1 18.48 1 28 C0.67 28 0.34 28 0 28 C-2.41208626 18.2032189 -1.61495807 9.78913046 0 0 Z " fill="#0E1D29" transform="translate(352,347)"/>
<path d="M0 0 C6.78376359 5.55035203 12.85522968 11.76442027 19 18 C16 18 16 18 13.5 15.5625 C12.675 14.716875 11.85 13.87125 11 13 C10.01 12.67 9.02 12.34 8 12 C6.3125 10.625 6.3125 10.625 5 9 C5 8.01 5 7.02 5 6 C4.01 6 3.02 6 2 6 C1.34 4.02 0.68 2.04 0 0 Z " fill="#E9EEF0" transform="translate(177,93)"/>
<path d="M0 0 C-3.63 3.3 -7.26 6.6 -11 10 C-11.66 9.67 -12.32 9.34 -13 9 C-12.67 7.35 -12.34 5.7 -12 4 C-11.01 3.67 -10.02 3.34 -9 3 C-8.34 2.01 -7.68 1.02 -7 0 C-4 -1 -4 -1 0 0 Z " fill="#DAD9CF" transform="translate(178,15)"/>
<path d="M0 0 C0.99 0.33 1.98 0.66 3 1 C4.0024305 6.34629602 3.84888195 10.62374766 3 16 C2.236875 16.268125 1.47375 16.53625 0.6875 16.8125 C-1.87380884 17.94424112 -3.19692938 18.91223401 -5 21 C-5.33 20.01 -5.66 19.02 -6 18 C-5.21625 17.4225 -4.4325 16.845 -3.625 16.25 C-1.07596571 14.06511347 -0.13690846 13.0609074 1 10 C1.02853647 7.39877587 1.02853647 7.39877587 0.625 4.75 C0.51414062 3.85796875 0.40328125 2.9659375 0.2890625 2.046875 C0.19367188 1.37140625 0.09828125 0.6959375 0 0 Z " fill="#EEF2F1" transform="translate(278,254)"/>
<path d="M0 0 C1.79683903 3.43339665 3.25792677 6.96194164 4.6875 10.5625 C5.14511719 11.69816406 5.60273437 12.83382813 6.07421875 14.00390625 C7 17 7 17 6 20 C2.87081361 18.43540681 2.42473548 15.38073691 1.3125 12.25 C0.62607422 10.40148437 0.62607422 10.40148437 -0.07421875 8.515625 C-0.98081959 5.07283701 -1.05225095 3.34169394 0 0 Z " fill="#CAC5C8" transform="translate(29,439)"/>
<path d="M0 0 C0.49628906 0.38671875 0.99257813 0.7734375 1.50390625 1.171875 C5.84883147 4.50270951 10.18629161 7.39257462 15 10 C14.67 10.66 14.34 11.32 14 12 C10.2089881 10.55049545 6.6125362 8.84827434 3 7 C3 6.34 3 5.68 3 5 C1.68 4.34 0.36 3.68 -1 3 C-0.67 2.01 -0.34 1.02 0 0 Z " fill="#D6D1CC" transform="translate(56,484)"/>
<path d="M0 0 C0.66 0 1.32 0 2 0 C1.67 0.99 1.34 1.98 1 3 C0.90347622 5.86448509 0.86074097 8.69881075 0.875 11.5625 C0.87113281 12.34302734 0.86726563 13.12355469 0.86328125 13.92773438 C0.76516735 18.09669875 0.76516735 18.09669875 2 22 C1.67558396 23.66842534 1.34060811 25.33480481 1 27 C0.96227087 28.9996441 0.95350094 31.00054061 1 33 C0.34 33 -0.32 33 -1 33 C-1.02465392 28.46102295 -1.04283789 23.92208457 -1.05493164 19.38305664 C-1.0599714 17.83780234 -1.0668032 16.29255284 -1.07543945 14.74731445 C-1.08752076 12.53074971 -1.09323173 10.31424782 -1.09765625 8.09765625 C-1.10281754 7.4028566 -1.10797882 6.70805695 -1.11329651 5.99220276 C-1.11349277 4.3277067 -1.06189129 2.66334501 -1 1 C-0.67 0.67 -0.34 0.34 0 0 Z " fill="#F7FEF8" transform="translate(353,234)"/>
<path d="M0 0 C4.34185387 1.9661225 6.85617758 4.71235515 9 9 C9.16796875 11.0234375 9.16796875 11.0234375 9.1875 13.375 C9.20167969 14.14585937 9.21585938 14.91671875 9.23046875 15.7109375 C8.97801607 18.21834888 8.25193467 19.83261902 7 22 C6.67 22 6.34 22 6 22 C6.06960937 21.0821875 6.13921875 20.164375 6.2109375 19.21875 C6.543151 11.6885773 6.47616395 6.97131104 1.3125 1.2578125 C0.879375 0.84273437 0.44625 0.42765625 0 0 Z " fill="#0B202D" transform="translate(131,246)"/>
<path d="M0 0 C0.66 0.66 1.32 1.32 2 2 C1.0925 2.53625 0.185 3.0725 -0.75 3.625 C-4.14485845 5.91231598 -6.06636219 8.34757303 -8 12 C-8.79682803 15.73225344 -8.79682803 15.73225344 -9 19 C-9.33 19 -9.66 19 -10 19 C-11.54275093 11.13197026 -11.54275093 11.13197026 -9 7 C-6.25993316 4.29286666 -3.45924308 1.72962154 0 0 Z " fill="#334E54" transform="translate(193,34)"/>
<path d="M0 0 C-0.5625 1.9375 -0.5625 1.9375 -2 4 C-5.375 4.625 -5.375 4.625 -9 5 C-9.95519531 5.50273437 -9.95519531 5.50273437 -10.9296875 6.015625 C-13.37801122 7.17973363 -15.05664093 7.20421644 -17.75 7.125 C-18.54921875 7.10695313 -19.3484375 7.08890625 -20.171875 7.0703125 C-20.77515625 7.04710937 -21.3784375 7.02390625 -22 7 C-18.58743254 5.1256095 -15.10074641 4.04344956 -11.375 2.9375 C-1.50943396 0 -1.50943396 0 0 0 Z " fill="#C4BEB6" transform="translate(375,501)"/>
<path d="M0 0 C0.33 0.99 0.66 1.98 1 3 C-3.75 7.875 -3.75 7.875 -6 9 C-4.47291037 5.56404834 -2.40072955 2.88087546 0 0 Z M-7 9 C-6.67 9 -6.34 9 -6 9 C-5.67 11.97 -5.34 14.94 -5 18 C-9.75 16.125 -9.75 16.125 -12 15 C-10.35830472 12.97945196 -8.69088222 10.97956942 -7 9 Z " fill="#E4F0F7" transform="translate(378,211)"/>
<path d="M0 0 C5.72210596 1.86763181 11.37661751 3.85289032 17 6 C17 6.99 17 7.98 17 9 C11.28062041 7.14506608 5.64444725 5.06896109 0 3 C0 2.01 0 1.02 0 0 Z " fill="#D9CFC8" transform="translate(80,500)"/>
<path d="M0 0 C0.66 0 1.32 0 2 0 C2.33 1.32 2.66 2.64 3 4 C0.66785852 5.20628008 -1.49642139 6.1654738 -4 7 C-5.20882096 9.00016466 -5.20882096 9.00016466 -6 11 C-6.99 10.67 -7.98 10.34 -9 10 C-7.8758824 8.70756532 -6.75067408 7.41607925 -5.625 6.125 C-4.99851563 5.40570313 -4.37203125 4.68640625 -3.7265625 3.9453125 C-2.52573166 2.5923402 -1.2791655 1.2791655 0 0 Z " fill="#12202A" transform="translate(150,135)"/>
<path d="M0 0 C4.29718953 1.38914475 6.70687757 3.38031985 9.8125 6.625 C10.99779297 7.85089844 10.99779297 7.85089844 12.20703125 9.1015625 C12.79871094 9.72804688 13.39039063 10.35453125 14 11 C13.67 11.99 13.34 12.98 13 14 C8 9 8 9 5.9375 6.8125 C4.03988788 5.03731447 2.37501016 4.0178615 0 3 C0 2.01 0 1.02 0 0 Z " fill="#F1F4F6" transform="translate(377,77)"/>
<path d="M0 0 C0.309375 0.639375 0.61875 1.27875 0.9375 1.9375 C1.8345163 3.93610821 1.8345163 3.93610821 3 5 C3.07325168 7.86267567 3.09238205 10.700719 3.0625 13.5625 C3.05798828 14.36880859 3.05347656 15.17511719 3.04882812 16.00585938 C3.03700518 18.00393756 3.01906914 20.00197783 3 22 C2.67 22 2.34 22 2 22 C0.57374434 14.58856436 -0.30071865 7.55137932 0 0 Z " fill="#EDF5F4" transform="translate(355,391)"/>
<path d="M0 0 C2.82202965 2.21186107 5.52097413 4.40829113 8 7 C8.556875 7.556875 9.11375 8.11375 9.6875 8.6875 C10.120625 9.120625 10.55375 9.55375 11 10 C10.34 10.66 9.68 11.32 9 12 C8.55269531 11.61328125 8.10539062 11.2265625 7.64453125 10.828125 C4.1478974 7.81609925 0.62592537 4.85678969 -3 2 C-2.01 1.34 -1.02 0.68 0 0 Z " fill="#D0CACB" transform="translate(391,51)"/>
<path d="M0 0 C-0.875 3.875 -0.875 3.875 -2 5 C-2.23363881 6.84891946 -2.41303635 8.70488031 -2.5625 10.5625 C-2.64628906 11.57441406 -2.73007813 12.58632813 -2.81640625 13.62890625 C-2.87699219 14.41136719 -2.93757812 15.19382812 -3 16 C-5.52739368 13.47260632 -5.49286453 12.07162202 -5.875 8.5625 C-5.99617187 7.59441406 -6.11734375 6.62632812 -6.2421875 5.62890625 C-6 3 -6 3 -4.1328125 1.15234375 C-2 0 -2 0 0 0 Z " fill="#F1F3F3" transform="translate(171,249)"/>
<path d="M0 0 C0.33 0 0.66 0 1 0 C1.33 8.58 1.66 17.16 2 26 C1.34 26 0.68 26 0 26 C-1.36752652 17.2478303 -0.70757095 8.77387981 0 0 Z " fill="#BBBFC3" transform="translate(294,175)"/>
<path d="M0 0 C0.33 0.99 0.66 1.98 1 3 C0 4 0 4 -3.3125 4.4375 C-6.44101199 4.91473064 -8.34101141 5.40460685 -11 7 C-11 6.01 -11 5.02 -11 4 C-4.5 0 -4.5 0 0 0 Z " fill="#0E1C26" transform="translate(165,127)"/>
<path d="M0 0 C2 4 2 4 2 7 C2.66 7.33 3.32 7.66 4 8 C3.71812064 9.79323253 3.4241719 11.58457126 3.125 13.375 C2.96257812 14.37273438 2.80015625 15.37046875 2.6328125 16.3984375 C2 19 2 19 0 21 C0 14.07 0 7.14 0 0 Z " fill="#F3F9F9" transform="translate(297,41)"/>
<path d="M0 0 C0.33 0 0.66 0 1 0 C1.36644578 1.55966592 1.71760862 3.12292651 2.0625 4.6875 C2.25972656 5.55761719 2.45695312 6.42773438 2.66015625 7.32421875 C3.02032279 10.16001276 2.70909969 12.24789982 2 15 C1.67 14.34 1.34 13.68 1 13 C0.34 13 -0.32 13 -1 13 C-1.02708567 11.39592672 -1.04643483 9.7917215 -1.0625 8.1875 C-1.07410156 7.29417969 -1.08570312 6.40085937 -1.09765625 5.48046875 C-1 3 -1 3 0 0 Z " fill="#D0C8C5" transform="translate(26,425)"/>
<path d="M0 0 C2.2154247 3.98952974 2.55795184 7.50404024 2 12 C1.18004633 14.78689457 0.14814208 17.32100182 -1 20 C-2.25180279 15.78080897 -1.67252421 12.03911435 -1.0625 7.75 C-0.96259766 7.00492187 -0.86269531 6.25984375 -0.75976562 5.4921875 C-0.51319844 3.66054558 -0.25749609 1.83013749 0 0 Z " fill="#C5C0C0" transform="translate(431,417)"/>
<path d="M0 0 C2 0 2 0 3.5625 1.375 C5 3 5 3 6 5 C5.34 5 4.68 5 4 5 C4 7.31 4 9.62 4 12 C1.9375 10.375 1.9375 10.375 0 8 C0.25 4.75 0.25 4.75 1 2 C0.34 1.67 -0.32 1.34 -1 1 C-0.67 0.67 -0.34 0.34 0 0 Z " fill="#F3F4ED" transform="translate(379,222)"/>
<path d="M0 0 C0.66 0 1.32 0 2 0 C1.86722656 0.72445312 1.73445313 1.44890625 1.59765625 2.1953125 C0.69718291 7.12491105 -0.19781966 12.05322123 -1 17 C-1.66 17 -2.32 17 -3 17 C-3.23733045 11.42273453 -2.57846031 6.36906939 -1 1 C-0.67 0.67 -0.34 0.34 0 0 Z " fill="#D2C8C2" transform="translate(27,106)"/>
<path d="M0 0 C2.64 0 5.28 0 8 0 C6.33333333 1.66666667 4.66666667 3.33333333 3 5 C2.113125 5.928125 1.22625 6.85625 0.3125 7.8125 C-2 10 -2 10 -4 10 C-2.25 5.125 -2.25 5.125 0 4 C0 2.68 0 1.36 0 0 Z " fill="#E0DAD2" transform="translate(52,59)"/>
<path d="M0 0 C1.75 1.5 1.75 1.5 3 3 C3.99 3 4.98 3 6 3 C6 3.66 6 4.32 6 5 C2.87725512 6.37400775 1.79099641 5.92162365 -1.5 4.6875 C-7.11320755 1.98113208 -7.11320755 1.98113208 -9 1 C-5.95016004 -0.52491998 -3.3576631 -0.23562548 0 0 Z " fill="#DDDEDC" transform="translate(218,8)"/>
<path d="M0 0 C-0.33 0.66 -0.66 1.32 -1 2 C-1.93972656 2.19916016 -1.93972656 2.19916016 -2.8984375 2.40234375 C-5.60783927 3.17286135 -6.15295532 4.21197704 -7.625 6.5625 C-8.8515625 8.50390625 -8.8515625 8.50390625 -10 10 C-10.66 10 -11.32 10 -12 10 C-11.78002243 6.1503925 -11.00932799 5.00953999 -8.25 2.1875 C-4.99183402 -0.00549633 -3.79335122 -0.55784577 0 0 Z " fill="#1D2A33" transform="translate(102,393)"/>
<path d="M0 0 C1.36511719 0.29197266 1.36511719 0.29197266 2.7578125 0.58984375 C3.45648438 0.74582031 4.15515625 0.90179688 4.875 1.0625 C4.875 1.3925 4.875 1.7225 4.875 2.0625 C-3.705 2.0625 -12.285 2.0625 -21.125 2.0625 C-21.125 1.7325 -21.125 1.4025 -21.125 1.0625 C-20.13757813 1.00191406 -19.15015625 0.94132812 -18.1328125 0.87890625 C-16.85148438 0.79511719 -15.57015625 0.71132813 -14.25 0.625 C-12.97382813 0.54378906 -11.69765625 0.46257812 -10.3828125 0.37890625 C-1.99795082 -0.43545082 -1.99795082 -0.43545082 0 0 Z " fill="#F1FCFB" transform="translate(262.125,391.9375)"/>
<path d="M0 0 C3 1 3 1 3.94921875 2.7421875 C4.19285156 3.44601563 4.43648438 4.14984375 4.6875 4.875 C4.93886719 5.57367188 5.19023437 6.27234375 5.44921875 6.9921875 C6 9 6 9 6 12 C6.66 12 7.32 12 8 12 C8 12.99 8 13.98 8 15 C7.01 15.33 6.02 15.66 5 16 C4.16280617 13.70967689 3.3301071 11.41789043 2.5 9.125 C2.14228516 8.14853516 2.14228516 8.14853516 1.77734375 7.15234375 C0 2.2265625 0 2.2265625 0 0 Z " fill="#D5D0CB" transform="translate(424,95)"/>
<path d="M0 0 C0.66 0.66 1.32 1.32 2 2 C-0.64 5.3 -3.28 8.6 -6 12 C-6.66 11.67 -7.32 11.34 -8 11 C-6.50592885 6.2687747 -6.50592885 6.2687747 -4 4.9375 C-3.34 4.628125 -2.68 4.31875 -2 4 C-0.73195434 1.9664052 -0.73195434 1.9664052 0 0 Z " fill="#1F3E55" transform="translate(374,213)"/>
<path d="M0 0 C0.66 0.33 1.32 0.66 2 1 C-0.53925681 6.07851362 -3.98755483 8.49377741 -9 11 C-8.46324097 7.14896699 -6.88399077 5.68202413 -3.9375 3.25 C-3.20402344 2.63640625 -2.47054688 2.0228125 -1.71484375 1.390625 C-1.14894531 0.93171875 -0.58304687 0.4728125 0 0 Z " fill="#E9F0ED" transform="translate(274,187)"/>
<path d="M0 0 C-1.53643852 3.68069887 -3.78150945 5.98775204 -6.625 8.75 C-7.85089844 9.94882813 -7.85089844 9.94882813 -9.1015625 11.171875 C-9.72804687 11.77515625 -10.35453125 12.3784375 -11 13 C-11.99 12.34 -12.98 11.68 -14 11 C-13.01 11 -12.02 11 -11 11 C-10.67 10.01 -10.34 9.02 -10 8 C-9.34 8 -8.68 8 -8 8 C-8 7.34 -8 6.68 -8 6 C-7.34 5.67 -6.68 5.34 -6 5 C-5.67 4.01 -5.34 3.02 -5 2 C-2 0 -2 0 0 0 Z " fill="#F8FCF9" transform="translate(155,129)"/>
<path d="M0 0 C3.9063291 0.57871542 5.97929406 2.5687001 9 5 C11.6794645 6.24016669 11.6794645 6.24016669 14 7 C14 7.66 14 8.32 14 9 C8.6410091 8.66506307 4.89256144 5.42872819 1 2 C0.67 1.34 0.34 0.68 0 0 Z " fill="#E6EBEE" transform="translate(74,465)"/>
<path d="M0 0 C1.48484412 0.39595843 2.9628831 0.81750706 4.4375 1.25 C5.26121094 1.48203125 6.08492188 1.7140625 6.93359375 1.953125 C9 3 9 3 9.78515625 5.109375 C9.85605469 5.73328125 9.92695313 6.3571875 10 7 C6.55639368 7 5.25204608 6.20408468 2.3125 4.5 C1.50425781 4.0359375 0.69601562 3.571875 -0.13671875 3.09375 C-0.75160156 2.7328125 -1.36648438 2.371875 -2 2 C-1.34 1.34 -0.68 0.68 0 0 Z " fill="#D5D4D4" transform="translate(273,10)"/>
<path d="M0 0 C0.66 0.33 1.32 0.66 2 1 C2.10841951 2.91541138 2.18578079 4.83259773 2.25 6.75 C2.29640625 7.81734375 2.3428125 8.8846875 2.390625 9.984375 C2 13 2 13 -2 17 C-1.34 11.39 -0.68 5.78 0 0 Z " fill="#E8F2F3" transform="translate(139,403)"/>
<path d="M0 0 C0.66 0.33 1.32 0.66 2 1 C0.4169423 5.2742558 -2.50568404 7.26531794 -6 10 C-6 9.34 -6 8.68 -6 8 C-6.99 7.67 -7.98 7.34 -9 7 C-8.071875 6.401875 -7.14375 5.80375 -6.1875 5.1875 C-3.79745282 3.54727155 -1.91529747 2.1281083 0 0 Z " fill="#EBF3EF" transform="translate(138,268)"/>
<path d="M0 0 C0.66 0.66 1.32 1.32 2 2 C-0.12741392 6.70270446 -2.62060825 10.16393369 -6 14 C-6.66 13.67 -7.32 13.34 -8 13 C-6.57298837 10.55369435 -5.14888349 8.19652621 -3.4375 5.9375 C-2.023874 4.032178 -0.99700267 2.14739037 0 0 Z " fill="#EFF2EF" transform="translate(279,336)"/>
<path d="M0 0 C3.96 0 7.92 0 12 0 C9 3 9 3 6.73828125 3.29296875 C5.93777344 3.25816406 5.13726562 3.22335938 4.3125 3.1875 C3.10013672 3.14689453 3.10013672 3.14689453 1.86328125 3.10546875 C0.94095703 3.05326172 0.94095703 3.05326172 0 3 C0 2.01 0 1.02 0 0 Z " fill="#F8FAFC" transform="translate(335,207)"/>
<path d="M0 0 C3.3 0.33 6.6 0.66 10 1 C10 1.66 10 2.32 10 3 C11.32 3.33 12.64 3.66 14 4 C13.67 4.99 13.34 5.98 13 7 C8.71 5.02 4.42 3.04 0 1 C0 0.67 0 0.34 0 0 Z " fill="#C9C6C1" transform="translate(374,46)"/>
<path d="M0 0 C3.00221784 4.50332676 4.31896025 8.57767579 4 14 C3.34 14 2.68 14 2 14 C0.09391902 10.78817851 -0.22266247 8.46117397 -0.125 4.75 C-0.09792969 3.41195313 -0.09792969 3.41195313 -0.0703125 2.046875 C-0.04710938 1.37140625 -0.02390625 0.6959375 0 0 Z " fill="#141F2B" transform="translate(89,404)"/>
<path d="M0 0 C0.33 0 0.66 0 1 0 C1.33 3.96 1.66 7.92 2 12 C1.01 12 0.02 12 -1 12 C-1.02687279 10.18757948 -1.04633715 8.37504767 -1.0625 6.5625 C-1.07410156 5.55316406 -1.08570313 4.54382813 -1.09765625 3.50390625 C-1 1 -1 1 0 0 Z " fill="#F3F4EA" transform="translate(324,331)"/>
<path d="M0 0 C0.66 0.33 1.32 0.66 2 1 C1.85892253 2.45880109 1.71197585 3.91703551 1.5625 5.375 C1.48128906 6.18710938 1.40007812 6.99921875 1.31640625 7.8359375 C1 10 1 10 0 12 C-1.32 12 -2.64 12 -4 12 C-3.71125 11.319375 -3.4225 10.63875 -3.125 9.9375 C-1.87402645 6.67106907 -0.92552045 3.37153877 0 0 Z " fill="#153345" transform="translate(377,202)"/>
<path d="M0 0 C1.65 0.33 3.3 0.66 5 1 C4.07038578 2.15224028 3.1309875 3.29659176 2.1875 4.4375 C1.40439453 5.39462891 1.40439453 5.39462891 0.60546875 6.37109375 C-1 8 -1 8 -4 9 C-2.80100302 5.9168649 -1.52299523 2.93720508 0 0 Z " fill="#2B4254" transform="translate(326,147)"/>
<path d="M0 0 C2 3 2 3 3 6 C1.125 7.0625 1.125 7.0625 -1 8 C-1.66 7.67 -2.32 7.34 -3 7 C-2.67 5.35 -2.34 3.7 -2 2 C-1.34 2 -0.68 2 0 2 C0 1.34 0 0.68 0 0 Z " fill="#F6F6E9" transform="translate(296,96)"/>
<path d="M0 0 C5.75 1.75 5.75 1.75 8 4 C7.625 6.125 7.625 6.125 7 8 C1.25 3.25 1.25 3.25 -1 1 C-0.67 0.67 -0.34 0.34 0 0 Z " fill="#E6EBED" transform="translate(129,315)"/>
<path d="M0 0 C0.66 0 1.32 0 2 0 C0.25 4.875 0.25 4.875 -2 6 C-2.66 5.67 -3.32 5.34 -4 5 C-4.33 5.66 -4.66 6.32 -5 7 C-5.33 5.68 -5.66 4.36 -6 3 C-3 1 -3 1 -1 1 C-0.67 0.67 -0.34 0.34 0 0 Z " fill="#E9EDEA" transform="translate(282,91)"/>
<path d="M0 0 C3.74981988 1.24993996 4.86618551 2.7230706 7 6 C6.75 8.3125 6.75 8.3125 6 10 C5.731875 9.360625 5.46375 8.72125 5.1875 8.0625 C4.11332248 5.66868314 4.11332248 5.66868314 1 5 C0.67 3.35 0.34 1.7 0 0 Z " fill="#E7EBEB" transform="translate(169,84)"/>
<path d="M0 0 C0.30421875 0.62003906 0.6084375 1.24007812 0.921875 1.87890625 C1.95914013 4.00934616 1.95914013 4.00934616 3.25 5.9375 C4 8 4 8 3.125 10.75 C2.75375 11.4925 2.3825 12.235 2 13 C0 11 0 11 -0.1953125 8.3984375 C-0.17210937 7.40070312 -0.14890625 6.40296875 -0.125 5.375 C-0.10695312 4.37210938 -0.08890625 3.36921875 -0.0703125 2.3359375 C-0.04710937 1.56507812 -0.02390625 0.79421875 0 0 Z " fill="#F0F5F3" transform="translate(136,50)"/>
<path d="M0 0 C0.66 0.99 1.32 1.98 2 3 C0.35 5.97 -1.3 8.94 -3 12 C-3.66 11.34 -4.32 10.68 -5 10 C-3.35 6.7 -1.7 3.4 0 0 Z " fill="#CEC9C5" transform="translate(422,455)"/>
<path d="M0 0 C0.5775 0.226875 1.155 0.45375 1.75 0.6875 C-1.42320782 4.22336014 -3.41743695 6.27328031 -8.25 6.6875 C-6.65594781 2.8352072 -4.57967475 -0.63606594 0 0 Z " fill="#161E21" transform="translate(98.25,245.3125)"/>
<path d="M0 0 C0.66 0.33 1.32 0.66 2 1 C1.01 2.98 0.02 4.96 -1 7 C-1.99 7 -2.98 7 -4 7 C-3.6875 4.625 -3.6875 4.625 -3 2 C-2.01 1.34 -1.02 0.68 0 0 Z " fill="#284554" transform="translate(354,418)"/>
<path d="M0 0 C0.82638376 2.89234315 1 4.88742431 1 8 C-0.98 8.99 -0.98 8.99 -3 10 C-2.69201674 8.51988629 -2.378482 7.04092675 -2.0625 5.5625 C-1.88847656 4.73878906 -1.71445312 3.91507813 -1.53515625 3.06640625 C-1 1 -1 1 0 0 Z " fill="#E5EFF4" transform="translate(323,159)"/>
<path d="M0 0 C-4.5 3 -4.5 3 -9 6 C-9.66 5.34 -10.32 4.68 -11 4 C-9.68 3.34 -8.36 2.68 -7 2 C-7 1.34 -7 0.68 -7 0 C-3.86650268 -1.04449911 -3.01031744 -0.93423645 0 0 Z " fill="#E0E5E5" transform="translate(99,162)"/>
<path d="M0 0 C0.66 0.66 1.32 1.32 2 2 C0.04310341 2.22142255 -1.91561952 2.4267568 -3.875 2.625 C-5.51082031 2.79902344 -5.51082031 2.79902344 -7.1796875 2.9765625 C-8.57574219 2.98816406 -8.57574219 2.98816406 -10 3 C-10.66 2.34 -11.32 1.68 -12 1 C-7.94638511 0.22788288 -4.12876411 -0.28150664 0 0 Z " fill="#C4C3BF" transform="translate(353,508)"/>
<path d="M0 0 C1.12758089 3.38274266 0.81750262 4.76778223 0.0625 8.1875 C-0.13214844 9.08855469 -0.32679688 9.98960937 -0.52734375 10.91796875 C-0.68332031 11.60503906 -0.83929688 12.29210937 -1 13 C-3.35953094 10.64046906 -3.49141413 9.22104383 -4 6 C-3.34 6 -2.68 6 -2 6 C-1.855625 5.195625 -1.71125 4.39125 -1.5625 3.5625 C-1 1 -1 1 0 0 Z " fill="#F7F8F8" transform="translate(169,399)"/>
<path d="M0 0 C-1.65 1.65 -3.3 3.3 -5 5 C-5.33 4.34 -5.66 3.68 -6 3 C-8.32156597 2.59270772 -10.6568787 2.25561323 -13 2 C-13 1.67 -13 1.34 -13 1 C-8.62426048 0.40667939 -4.42471556 -0.13827236 0 0 Z " fill="#F5FAEF" transform="translate(122,206)"/>
<path d="M0 0 C-1.62339805 1.70884005 -3.29319053 3.37446717 -5 5 C-5.66 5 -6.32 5 -7 5 C-7.33 5.66 -7.66 6.32 -8 7 C-7.67 4.69 -7.34 2.38 -7 0 C-2.25 -1.125 -2.25 -1.125 0 0 Z " fill="#214158" transform="translate(156,163)"/>
<path d="M0 0 C-2.38957269 3.24299151 -4.2047869 5.50902342 -8 7 C-7.75 4.125 -7.75 4.125 -7 1 C-4.1587258 -1.17831022 -3.46754708 -1.15584903 0 0 Z " fill="#153954" transform="translate(172,147)"/>
<path d="M0 0 C-1.74818591 0.22304441 -3.49870323 0.4278645 -5.25 0.625 C-6.22453125 0.74101563 -7.1990625 0.85703125 -8.203125 0.9765625 C-11.13429393 1.00112537 -12.54528964 0.5312717 -15 -1 C-9.60900529 -2.30690781 -4.75492505 -3.16995003 0 0 Z " fill="#DDDCD7" transform="translate(108,41)"/>
<path d="M0 0 C0.33 0.66 0.66 1.32 1 2 C-2.96 2.66 -6.92 3.32 -11 4 C-10.67 3.01 -10.34 2.02 -10 1 C-6.78548731 -0.60725635 -3.56387464 -0.05748185 0 0 Z " fill="#D0DBDF" transform="translate(257,34)"/>
<path d="M0 0 C-0.33 0.99 -0.66 1.98 -1 3 C-4.5625 4.6875 -4.5625 4.6875 -8 6 C-8.33 5.01 -8.66 4.02 -9 3 C-6.38997624 -0.48003168 -4.1689578 -0.27793052 0 0 Z " fill="#D6D9D2" transform="translate(187,8)"/>
<path d="M0 0 C0.33 0 0.66 0 1 0 C1.33 3.3 1.66 6.6 2 10 C1.01 10.33 0.02 10.66 -1 11 C-2.26264601 6.70700357 -1.62950412 4.12168689 0 0 Z " fill="#C9C3C1" transform="translate(427,441)"/>
<path d="M0 0 C-1.175625 0.928125 -1.175625 0.928125 -2.375 1.875 C-4.96837647 3.89858661 -4.96837647 3.89858661 -7 6 C-7.33 4.68 -7.66 3.36 -8 2 C-7.34 2 -6.68 2 -6 2 C-6 1.34 -6 0.68 -6 0 C-3.50907189 -1.24546405 -2.58919267 -0.7767578 0 0 Z M-10 4 C-9.01 4.495 -9.01 4.495 -8 5 C-8.99 5.495 -8.99 5.495 -10 6 C-10 5.34 -10 4.68 -10 4 Z " fill="#E9EDEC" transform="translate(177,395)"/>
<path d="M0 0 C0.66 0.99 1.32 1.98 2 3 C-0.97 5.475 -0.97 5.475 -4 8 C-3.40138258 5.64828869 -2.73075648 3.3140622 -2 1 C-1.34 0.67 -0.68 0.34 0 0 Z " fill="#ECF6F8" transform="translate(144,175)"/>
<path d="M0 0 C0.99 0.33 1.98 0.66 3 1 C-0.32307692 5.8 -0.32307692 5.8 -3.75 6.8125 C-4.4925 6.874375 -5.235 6.93625 -6 7 C-4.02 4.69 -2.04 2.38 0 0 Z " fill="#0C1E25" transform="translate(252,83)"/>
<path d="M0 0 C0.99 0.99 1.98 1.98 3 3 C2.6875 5.3125 2.6875 5.3125 2 8 C1.96227087 9.9996441 1.95350094 12.00054061 2 14 C1.34 14 0.68 14 0 14 C0 9.38 0 4.76 0 0 Z " fill="#EDF6F2" transform="translate(352,253)"/>
<path d="M0 0 C-1.11666174 3.34998521 -1.74694925 3.79340222 -4.5625 5.6875 C-5.20316406 6.12449219 -5.84382812 6.56148438 -6.50390625 7.01171875 C-6.99761719 7.33785156 -7.49132812 7.66398437 -8 8 C-8.66 7.67 -9.32 7.34 -10 7 C-8.71372289 5.82739389 -7.42080217 4.6620717 -6.125 3.5 C-5.04605469 2.52546875 -5.04605469 2.52546875 -3.9453125 1.53125 C-2 0 -2 0 0 0 Z " fill="#0C1A23" transform="translate(245,91)"/>
<path d="M0 0 C2.95409701 1.37154504 5.44008376 2.98863724 8 5 C7.67 5.99 7.34 6.98 7 8 C5 6.625 5 6.625 3 5 C3 4.34 3 3.68 3 3 C2.01 2.67 1.02 2.34 0 2 C0 1.34 0 0.68 0 0 Z " fill="#CCC5C9" transform="translate(402,63)"/>
<path d="M0 0 C-2.62438979 1.74959319 -3.96547627 2.62068453 -7 3 C-7.99 2.34 -8.98 1.68 -10 1 C-6.21812119 -0.83691257 -4.05431692 -1.15837626 0 0 Z " fill="#D4D5C8" transform="translate(90,43)"/>
<path d="M0 0 C0 0.66 0 1.32 0 2 C-3.21451269 3.60725635 -6.43612536 3.05748185 -10 3 C-9.67 2.34 -9.34 1.68 -9 1 C-5.93090555 0.33280556 -3.14213983 0 0 0 Z " fill="#F3F6F4" transform="translate(356,479)"/>
<path d="M0 0 C4 4 4 4 4.171875 6.359375 C4.03265625 7.14828125 3.8934375 7.9371875 3.75 8.75 C3.62109375 9.54921875 3.4921875 10.3484375 3.359375 11.171875 C3.24078125 11.77515625 3.1221875 12.3784375 3 13 C2.67 13 2.34 13 2 13 C1.34 8.71 0.68 4.42 0 0 Z " fill="#D5DCDB" transform="translate(276,398)"/>
<path d="M0 0 C-3.61328125 4.6875 -3.61328125 4.6875 -5 6 C-5.99 6 -6.98 6 -8 6 C-7.8125 3.625 -7.8125 3.625 -7 1 C-2.77108434 -1.38554217 -2.77108434 -1.38554217 0 0 Z " fill="#F2F3EE" transform="translate(96,394)"/>
<path d="M0 0 C-0.33 0.99 -0.66 1.98 -1 3 C-2.84765625 3.73046875 -2.84765625 3.73046875 -5.0625 4.1875 C-5.79597656 4.34605469 -6.52945312 4.50460938 -7.28515625 4.66796875 C-8.13400391 4.83232422 -8.13400391 4.83232422 -9 5 C-4.16129032 0 -4.16129032 0 0 0 Z " fill="#EAF2F5" transform="translate(365,229)"/>
<path d="M0 0 C0.33 2.31 0.66 4.62 1 7 C-3.75 5.125 -3.75 5.125 -6 4 C-1.125 0 -1.125 0 0 0 Z " fill="#F0F5FA" transform="translate(372,222)"/>
<path d="M0 0 C0.33 0 0.66 0 1 0 C0.53199289 4.05606165 0.12046792 7.46588679 -2 11 C-2.66 9.68 -3.32 8.36 -4 7 C-3.525625 6.401875 -3.05125 5.80375 -2.5625 5.1875 C-0.83534256 2.99617076 -0.83534256 2.99617076 0 0 Z " fill="#EFF3EC" transform="translate(301,144)"/>
<path d="M0 0 C0 0.66 0 1.32 0 2 C-2.90548882 4.04169485 -4.40142046 5 -8 5 C-7 2 -7 2 -5.125 0.8125 C-3 0 -3 0 0 0 Z " fill="#EFF3EB" transform="translate(244,125)"/>
<path d="M0 0 C2.88437779 1.29299694 4.87219421 2.65941363 7 5 C6.67 5.66 6.34 6.32 6 7 C4.02 6.01 2.04 5.02 0 4 C0 2.68 0 1.36 0 0 Z " fill="#0A1626" transform="translate(214,94)"/>
<path d="M0 0 C-0.5775 0.268125 -1.155 0.53625 -1.75 0.8125 C-4.0325868 2.01719859 -5.9737942 3.40798115 -8 5 C-8.66 4.67 -9.32 4.34 -10 4 C-9.67 3.01 -9.34 2.02 -9 1 C-6.04335481 -0.4783226 -3.25770263 -0.06032783 0 0 Z " fill="#E6ECE5" transform="translate(90,73)"/>
<path d="M0 0 C0.33 1.32 0.66 2.64 1 4 C0.34 4 -0.32 4 -1 4 C-1.66 5.32 -2.32 6.64 -3 8 C-3.99 8 -4.98 8 -6 8 C-4.02 5.36 -2.04 2.72 0 0 Z " fill="#D8E4E4" transform="translate(239,40)"/>
<path d="M0 0 C0.99 0 1.98 0 3 0 C5.25 2.3125 5.25 2.3125 7 5 C6.67 5.99 6.34 6.98 6 8 C5.34 8 4.68 8 4 8 C4 6.68 4 5.36 4 4 C3.34 4 2.68 4 2 4 C2 3.01 2 2.02 2 1 C1.34 0.67 0.68 0.34 0 0 Z " fill="#E5E8E7" transform="translate(321,421)"/>
<path d="M0 0 C0.99 0.66 1.98 1.32 3 2 C1.68 3.32 0.36 4.64 -1 6 C-2.32 5.34 -3.64 4.68 -5 4 C-3.35 2.68 -1.7 1.36 0 0 Z " fill="#1F4454" transform="translate(142,173)"/>
<path d="M0 0 C0.99 0 1.98 0 3 0 C2.01 2.97 1.02 5.94 0 9 C-0.66 8.01 -1.32 7.02 -2 6 C-1.125 2.8125 -1.125 2.8125 0 0 Z " fill="#F5F5F3" transform="translate(87,167)"/>
<path d="M0 0 C2.52259061 1.97420135 2.9929808 2.96745642 3.6875 6.1875 C3.790625 7.115625 3.89375 8.04375 4 9 C3.01 9.495 3.01 9.495 2 10 C0.68373308 6.38026598 0 3.90432869 0 0 Z " fill="#16282F" transform="translate(377,154)"/>
<path d="M0 0 C0.99 0.33 1.98 0.66 3 1 C3 1.66 3 2.32 3 3 C3.66 3.33 4.32 3.66 5 4 C2.36 4 -0.28 4 -3 4 C-3 3.34 -3 2.68 -3 2 C-2.01 1.34 -1.02 0.68 0 0 Z " fill="#F3F7F1" transform="translate(164,123)"/>
<path d="M0 0 C1.98 0 3.96 0 6 0 C4.71937515 1.7074998 3.38232443 3.37373596 2 5 C1.34 5 0.68 5 0 5 C0 3.35 0 1.7 0 0 Z " fill="#EFF3EF" transform="translate(226,14)"/>
<path d="M0 0 C0.99 0.66 1.98 1.32 3 2 C0.69 3.65 -1.62 5.3 -4 7 C-3.6875 4.625 -3.6875 4.625 -3 2 C-2.01 1.34 -1.02 0.68 0 0 Z " fill="#DCD3C7" transform="translate(397,488)"/>
<path d="M0 0 C2.2477975 2.05233685 3.0022242 3.00667261 4 6 C2.68 6.33 1.36 6.66 0 7 C-0.38133299 5.0085944 -0.71325582 3.00720923 -1 1 C-0.67 0.67 -0.34 0.34 0 0 Z " fill="#CDCBC9" transform="translate(37,460)"/>
<path d="M0 0 C1.45823212 -0.0270043 2.91660675 -0.04639787 4.375 -0.0625 C5.18710937 -0.07410156 5.99921875 -0.08570313 6.8359375 -0.09765625 C9 0 9 0 11 1 C10.67 1.99 10.34 2.98 10 4 C9.46375 3.690625 8.9275 3.38125 8.375 3.0625 C5.6015043 1.82172561 2.99957163 1.4090325 0 1 C0 0.67 0 0.34 0 0 Z " fill="#DAE3E4" transform="translate(263,394)"/>
<path d="M0 0 C0.99 0.33 1.98 0.66 3 1 C1.02 3.31 -0.96 5.62 -3 8 C-3.33 7.01 -3.66 6.02 -4 5 C-2.0625 2.3125 -2.0625 2.3125 0 0 Z " fill="#EAECE9" transform="translate(93,316)"/>
<path d="M0 0 C2.31 1.98 4.62 3.96 7 6 C6.67 6.99 6.34 7.98 6 9 C5.34 7.68 4.68 6.36 4 5 C3.34 5 2.68 5 2 5 C1.34 3.35 0.68 1.7 0 0 Z " fill="#F1F2F4" transform="translate(305,220)"/>
<path d="M0 0 C0.33 0 0.66 0 1 0 C1.12375 0.78375 1.2475 1.5675 1.375 2.375 C1.79117993 5.14057822 1.79117993 5.14057822 4 7 C3.01 7.99 2.02 8.98 1 10 C0 9 0 9 -0.09765625 6.93359375 C-0.08605469 6.10988281 -0.07445312 5.28617187 -0.0625 4.4375 C-0.05347656 3.61121094 -0.04445312 2.78492187 -0.03515625 1.93359375 C-0.02355469 1.29550781 -0.01195312 0.65742187 0 0 Z " fill="#D9E3E1" transform="translate(52,118)"/>
<path d="M0 0 C1.98 0 3.96 0 6 0 C6.33 0.66 6.66 1.32 7 2 C5.68 2 4.36 2 3 2 C3 2.66 3 3.32 3 4 C1.68 4.33 0.36 4.66 -1 5 C-0.67 3.35 -0.34 1.7 0 0 Z " fill="#E2D6C3" transform="translate(68,47)"/>
<path d="M0 0 C0.99 0.33 1.98 0.66 3 1 C2.67 1.66 2.34 2.32 2 3 C1.34 3 0.68 3 0 3 C-0.33 3.99 -0.66 4.98 -1 6 C-1.33 5.34 -1.66 4.68 -2 4 C-2.66 3.67 -3.32 3.34 -4 3 C-2.1875 1.4375 -2.1875 1.4375 0 0 Z " fill="#E0EBEC" transform="translate(244,36)"/>
<path d="M0 0 C0 0.66 0 1.32 0 2 C-3.47325181 3.1577506 -6.36067448 3.06866652 -10 3 C-6.26223701 0.50815801 -4.5227786 0 0 0 Z " fill="#2A3F47" transform="translate(193,9)"/>
<path d="M0 0 C3.3 0.33 6.6 0.66 10 1 C5.64467851 3.17766075 4.53374042 3.03039555 0 2 C0 1.34 0 0.68 0 0 Z " fill="#D2CBBF" transform="translate(103,508)"/>
<path d="M0 0 C0.66 0.33 1.32 0.66 2 1 C0.68 2.65 -0.64 4.3 -2 6 C-3.32 5.34 -4.64 4.68 -6 4 C-4.02 2.68 -2.04 1.36 0 0 Z " fill="#D1CABF" transform="translate(391,492)"/>
<path d="M0 0 C0.66 0.66 1.32 1.32 2 2 C0.25 3.5625 0.25 3.5625 -2 5 C-4.25 4.6875 -4.25 4.6875 -6 4 C-4.02 2.68 -2.04 1.36 0 0 Z " fill="#F0F4EE" transform="translate(352,425)"/>
<path d="M0 0 C2.475 0.99 2.475 0.99 5 2 C4.67 2.66 4.34 3.32 4 4 C4.28112064 6.00800456 4.61067967 8.01014051 5 10 C2.90217213 7.90217213 2.3490604 6.6200793 1.375 3.875 C1.11460937 3.15054687 0.85421875 2.42609375 0.5859375 1.6796875 C0.39257812 1.12539063 0.19921875 0.57109375 0 0 Z " fill="#ECEFEE" transform="translate(275,325)"/>
<path d="M0 0 C0.66 0 1.32 0 2 0 C2 0.99 2 1.98 2 3 C-1.96 3 -5.92 3 -10 3 C-10 2.67 -10 2.34 -10 2 C-9.04287109 1.90912109 -9.04287109 1.90912109 -8.06640625 1.81640625 C-6.82697266 1.69072266 -6.82697266 1.69072266 -5.5625 1.5625 C-4.73878906 1.48128906 -3.91507812 1.40007812 -3.06640625 1.31640625 C-1.01337975 1.21069185 -1.01337975 1.21069185 0 0 Z " fill="#EBF2FA" transform="translate(267,243)"/>
<path d="M0 0 C2.97 0.99 5.94 1.98 9 3 C9 3.33 9 3.66 9 4 C3.375 4.25 3.375 4.25 0 2 C0 1.34 0 0.68 0 0 Z " fill="#0E1824" transform="translate(327,207)"/>
<path d="M0 0 C0.66 0 1.32 0 2 0 C2 0.66 2 1.32 2 2 C3.98 2 5.96 2 8 2 C8 2.99 8 3.98 8 5 C4.33776842 4.50510384 2.33006074 3.94323463 0 1 C0 0.67 0 0.34 0 0 Z " fill="#2D4B4E" transform="translate(101,201)"/>
<path d="M0 0 C0.99 0.33 1.98 0.66 3 1 C3 1.66 3 2.32 3 3 C3.66 3 4.32 3 5 3 C5 4.65 5 6.3 5 8 C2.27573689 5.64722731 1.1858237 3.37503669 0 0 Z " fill="#E6ECEA" transform="translate(376,150)"/>
<path d="M0 0 C1.32 0 2.64 0 4 0 C4.33 0.99 4.66 1.98 5 3 C4 4 4 4 1.4375 4.0625 C0.2309375 4.0315625 0.2309375 4.0315625 -1 4 C-0.67 2.68 -0.34 1.36 0 0 Z " fill="#0F2330" transform="translate(161,127)"/>
<path d="M0 0 C-2.91708924 1.98362069 -4.12380904 1.9876191 -7.75 1.625 C-8.8225 1.41875 -9.895 1.2125 -11 1 C-11 0.67 -11 0.34 -11 0 C-7.01803543 -1.05404945 -4.01804691 -0.84098656 0 0 Z " fill="#D7DBDA" transform="translate(111,67)"/>
<path d="M0 0 C3.36720387 1.39332574 4.9859524 2.9789286 7 6 C3.75728494 5.4409112 2.06942576 4.5867822 0 2 C0 1.34 0 0.68 0 0 Z " fill="#151B31" transform="translate(396,60)"/>
</svg>
